<svg xmlns="http://www.w3.org/2000/svg" viewBox="0 0 1890 1064"><defs><style>.cls-1{isolation:isolate;}.cls-11,.cls-13,.cls-2,.cls-3,.cls-5,.cls-6{fill:none;stroke-miterlimit:10;}.cls-2,.cls-3,.cls-5,.cls-6{stroke:#2c77bc;}.cls-2,.cls-3{stroke-width:9.06px;}.cls-16,.cls-3{fill-rule:evenodd;}.cls-10,.cls-4{fill:#2c77bc;}.cls-5{stroke-width:8.35px;}.cls-6{stroke-width:7.86px;}.cls-7,.cls-8,.cls-9{fill:#2a77bc;}.cls-8{font-size:31.17px;letter-spacing:-0.05em;}.cls-12,.cls-8,.cls-9{font-family:OCRAStd, OCR A Std;}.cls-9{font-size:21.82px;letter-spacing:-0.05em;}.cls-10{font-size:43.49px;letter-spacing:-0.02em;}.cls-10,.cls-15{font-family:Nunito-ExtraBold, Nunito;font-weight:800;}.cls-11,.cls-13{stroke:#2a77bc;}.cls-11{stroke-width:3.85px;}.cls-12{font-size:33.27px;fill:#fff;letter-spacing:-0.05em;}.cls-13{stroke-width:3.12px;}.cls-14{fill:#b9f9f7;mix-blend-mode:multiply;}.cls-15{font-size:48.94px;letter-spacing:-0.03em;}.cls-15,.cls-16{fill:#1a303a;}</style></defs><title>BoardIllustration</title><g class="cls-1"><g id="Layer_1" data-name="Layer 1"><rect class="cls-2" x="796.25" y="103.99" width="978.78" height="889.51" rx="151.95"/><polygon class="cls-3" points="1149.94 557.05 1149.94 524.19 1530.4 526.88 1530.4 557.05 1579.28 557.05 1579.28 807.37 1532.52 807.37 1532.52 839.25 1149.94 839.25 1149.94 811.62 1101.05 811.62 1101.05 557.05 1149.94 557.05"/><circle class="cls-4" cx="1143.26" cy="602.84" r="7.35"/><circle class="cls-4" cx="1182.93" cy="602.84" r="7.35"/><circle class="cls-4" cx="1222.61" cy="602.84" r="7.35"/><circle class="cls-4" cx="1262.28" cy="602.84" r="7.35"/><circle class="cls-4" cx="1301.96" cy="602.84" r="7.35"/><circle class="cls-4" cx="1341.63" cy="602.84" r="7.35"/><circle class="cls-4" cx="1381.31" cy="602.84" r="7.35"/><circle class="cls-4" cx="1420.98" cy="602.84" r="7.35"/><circle class="cls-4" cx="1460.66" cy="602.84" r="7.35"/><circle class="cls-4" cx="1500.34" cy="602.84" r="7.35"/><circle class="cls-4" cx="1540.01" cy="602.84" r="7.35"/><circle class="cls-4" cx="1143.26" cy="643" r="7.35"/><circle class="cls-4" cx="1182.93" cy="643" r="7.35"/><circle class="cls-4" cx="1222.61" cy="643" r="7.35"/><circle class="cls-4" cx="1262.28" cy="643" r="7.35"/><circle class="cls-4" cx="1301.96" cy="643" r="7.35"/><circle class="cls-4" cx="1341.63" cy="643" r="7.35"/><circle class="cls-4" cx="1381.31" cy="643" r="7.35"/><circle class="cls-4" cx="1420.98" cy="643" r="7.35"/><circle class="cls-4" cx="1460.66" cy="643" r="7.35"/><circle class="cls-4" cx="1500.34" cy="643" r="7.35"/><circle class="cls-4" cx="1540.01" cy="643" r="7.35"/><circle class="cls-4" cx="1143.26" cy="683.16" r="7.35"/><circle class="cls-4" cx="1182.93" cy="683.16" r="7.35"/><circle class="cls-4" cx="1222.61" cy="683.16" r="7.35"/><circle class="cls-4" cx="1262.28" cy="683.16" r="7.35"/><circle class="cls-4" cx="1301.96" cy="683.16" r="7.35"/><circle class="cls-4" cx="1341.63" cy="683.16" r="7.35"/><circle class="cls-4" cx="1381.31" cy="683.16" r="7.35"/><circle class="cls-4" cx="1420.98" cy="683.16" r="7.35"/><circle class="cls-4" cx="1460.66" cy="683.16" r="7.35"/><circle class="cls-4" cx="1500.34" cy="683.16" r="7.35"/><circle class="cls-4" cx="1540.01" cy="683.16" r="7.35"/><circle class="cls-4" cx="1143.26" cy="723.32" r="7.35"/><circle class="cls-4" cx="1182.93" cy="723.32" r="7.35"/><circle class="cls-4" cx="1222.61" cy="723.32" r="7.35"/><circle class="cls-4" cx="1262.28" cy="723.32" r="7.35"/><circle class="cls-4" cx="1301.96" cy="723.32" r="7.35"/><circle class="cls-4" cx="1341.63" cy="723.32" r="7.35"/><circle class="cls-4" cx="1381.31" cy="723.32" r="7.35"/><circle class="cls-4" cx="1420.98" cy="723.32" r="7.35"/><circle class="cls-4" cx="1460.66" cy="723.32" r="7.35"/><circle class="cls-4" cx="1500.34" cy="723.32" r="7.35"/><circle class="cls-4" cx="1540.01" cy="723.32" r="7.35"/><circle class="cls-4" cx="1143.26" cy="763.48" r="7.35"/><circle class="cls-4" cx="1182.93" cy="763.48" r="7.35"/><circle class="cls-4" cx="1222.61" cy="763.48" r="7.35"/><circle class="cls-4" cx="1262.28" cy="763.48" r="7.35"/><circle class="cls-4" cx="1301.96" cy="763.48" r="7.35"/><circle class="cls-4" cx="1341.63" cy="763.48" r="7.35"/><circle class="cls-4" cx="1381.31" cy="763.48" r="7.35"/><circle class="cls-4" cx="1420.98" cy="763.48" r="7.35"/><circle class="cls-4" cx="1460.66" cy="763.48" r="7.35"/><circle class="cls-4" cx="1500.34" cy="763.48" r="7.35"/><circle class="cls-4" cx="1540.01" cy="763.48" r="7.35"/><rect class="cls-2" x="870.44" y="249.89" width="31.88" height="477.52"/><rect class="cls-5" x="974" y="69.62" width="31.88" height="239.01" transform="translate(1179.07 -800.81) rotate(90)"/><rect class="cls-2" x="903.65" y="797.69" width="31.88" height="158.88" transform="translate(1796.72 -42.46) rotate(90)"/><rect class="cls-2" x="1352.21" y="30.25" width="31.88" height="317.76" transform="translate(1557.28 -1179.03) rotate(90)"/><rect class="cls-2" x="1229.95" y="424.9" width="72.01" height="72.01" transform="translate(1726.86 -805.05) rotate(90)"/><rect class="cls-2" x="1453.68" y="336.27" width="36" height="72.01" transform="translate(1843.95 -1099.4) rotate(90)"/><rect class="cls-2" x="1558.01" y="256.24" width="36" height="72.01" transform="translate(1868.25 -1283.78) rotate(90)"/><rect class="cls-2" x="1558.01" y="416.32" width="36" height="72.01" transform="translate(2028.34 -1123.69) rotate(90)"/><rect class="cls-2" x="1028.25" y="865.65" width="216.8" height="83.34"/><rect class="cls-2" x="1315.04" y="865.65" width="216.8" height="83.34"/><rect class="cls-2" x="1657.72" y="336.27" width="36" height="72.01" transform="translate(2048 -1303.45) rotate(90)"/><rect class="cls-4" x="1058.09" y="911.8" width="9.56" height="9.56"/><rect class="cls-4" x="1094.75" y="911.8" width="9.56" height="9.56"/><rect class="cls-4" x="1131.42" y="911.8" width="9.56" height="9.56"/><rect class="cls-4" x="1168.08" y="911.8" width="9.56" height="9.56"/><rect class="cls-4" x="1204.75" y="911.8" width="9.56" height="9.56"/><rect class="cls-4" x="1344.51" y="911.8" width="9.56" height="9.56"/><rect class="cls-4" x="1381.17" y="911.8" width="9.56" height="9.56"/><rect class="cls-4" x="1417.84" y="911.8" width="9.56" height="9.56"/><rect class="cls-4" x="1454.5" y="911.8" width="9.56" height="9.56"/><rect class="cls-4" x="1491.17" y="911.8" width="9.56" height="9.56"/><rect class="cls-4" x="1573.7" y="871.27" width="9.56" height="9.56"/><rect class="cls-4" x="1616.6" y="871.27" width="9.56" height="9.56"/><rect class="cls-4" x="866.07" y="790.22" width="9.56" height="9.56"/><rect class="cls-4" x="908.97" y="790.22" width="9.56" height="9.56"/><rect class="cls-4" x="1656.38" y="871.27" width="9.56" height="9.56"/><line class="cls-2" x1="879.87" y1="861.19" x2="879.87" y2="893.07"/><line class="cls-2" x1="919.59" y1="861.19" x2="919.59" y2="893.07"/><line class="cls-2" x1="959.31" y1="861.19" x2="959.31" y2="893.07"/><rect class="cls-6" x="1604.14" y="817.3" width="31.88" height="119.66" transform="translate(2497.22 -742.96) rotate(90)"/><line class="cls-2" x1="1599.97" y1="861.19" x2="1599.97" y2="893.07"/><line class="cls-2" x1="1639.69" y1="861.19" x2="1639.69" y2="893.07"/><rect class="cls-2" x="875.4" y="754.07" width="31.88" height="79.44" transform="translate(1685.13 -97.54) rotate(90)"/><line class="cls-2" x1="891.34" y1="777.85" x2="891.34" y2="809.74"/><line class="cls-2" x1="902.32" y1="687.83" x2="870.44" y2="687.83"/><line class="cls-2" x1="902.32" y1="647.09" x2="870.44" y2="647.09"/><line class="cls-2" x1="902.32" y1="607.37" x2="870.44" y2="607.37"/><line class="cls-2" x1="902.32" y1="567.65" x2="870.44" y2="567.65"/><line class="cls-2" x1="902.32" y1="527.93" x2="870.44" y2="527.93"/><line class="cls-2" x1="902.32" y1="488.21" x2="870.44" y2="488.21"/><line class="cls-2" x1="902.32" y1="448.49" x2="870.44" y2="448.49"/><line class="cls-2" x1="902.32" y1="408.77" x2="870.44" y2="408.77"/><line class="cls-2" x1="902.32" y1="369.05" x2="870.44" y2="369.05"/><line class="cls-2" x1="902.32" y1="329.33" x2="870.44" y2="329.33"/><line class="cls-2" x1="902.32" y1="289.61" x2="870.44" y2="289.61"/><line class="cls-2" x1="1248.99" y1="205.07" x2="1248.99" y2="173.19"/><line class="cls-2" x1="1069.04" y1="205.07" x2="1069.04" y2="173.19"/><line class="cls-2" x1="1029.32" y1="205.07" x2="1029.32" y2="173.19"/><line class="cls-2" x1="989.6" y1="205.07" x2="989.6" y2="173.19"/><line class="cls-2" x1="949.88" y1="205.07" x2="949.88" y2="173.19"/><line class="cls-2" x1="910.16" y1="205.07" x2="910.16" y2="173.19"/><line class="cls-2" x1="1288.71" y1="205.07" x2="1288.71" y2="173.19"/><line class="cls-2" x1="1328.43" y1="205.07" x2="1328.43" y2="173.19"/><line class="cls-2" x1="1368.15" y1="205.07" x2="1368.15" y2="173.19"/><line class="cls-2" x1="1407.87" y1="205.07" x2="1407.87" y2="173.19"/><line class="cls-2" x1="1447.59" y1="205.07" x2="1447.59" y2="173.19"/><line class="cls-2" x1="1487.31" y1="205.07" x2="1487.31" y2="173.19"/><path class="cls-7" d="M947.78,143v12.25h-4.32v-28h8.13c5,0,7.7,2.65,7.7,7.5,0,4.09-2.13,5.85-3.67,6.43,2.31,1,3.26,3,3.26,7v1.12a32.59,32.59,0,0,0,.38,5.89H955a24.29,24.29,0,0,1-.46-5.95v-1c0-3.83-.84-5.31-4.21-5.31Zm0-3.57h2.77c3.16,0,4.37-1.51,4.37-4.49,0-2.54-1.2-4.11-3.94-4.11h-3.2Z"/><path class="cls-7" d="M980.16,141.05c0,10-2.61,14.67-8.93,14.67-5.94,0-8.68-4.57-8.68-14.7,0-9.9,3.2-14.17,8.88-14.17C977.42,126.85,980.16,131.41,980.16,141.05ZM967,141c0,7.1,1.21,11.07,4.33,11.07s4.35-3.74,4.35-11c0-7.07-1.17-10.44-4.36-10.44S967,134.26,967,141Z"/><path class="cls-7" d="M984.23,127.28h8.11c4.63,0,7.26,2.63,7.26,7,0,3.6-1.72,5.29-3.3,5.87,2,.79,4.15,2.65,4.15,6.89,0,5.23-3.32,8.22-8.25,8.22h-8Zm7,11.34c3.25,0,4.22-1.33,4.22-4s-1.35-3.9-4-3.9H988.5v7.85Zm-2.69,13.21h3.25c2.77,0,4.33-1.52,4.33-4.85,0-3.18-1.44-4.93-4.89-4.93H988.5Z"/><path class="cls-7" d="M1020.92,141.05c0,10-2.61,14.67-8.92,14.67-5.94,0-8.69-4.57-8.69-14.7,0-9.9,3.21-14.17,8.88-14.17C1018.19,126.85,1020.92,131.41,1020.92,141.05Zm-13.14-.08c0,7.1,1.21,11.07,4.33,11.07s4.35-3.74,4.35-11c0-7.07-1.17-10.44-4.37-10.44S1007.78,134.26,1007.78,141Z"/><path class="cls-7" d="M1028.14,131.1h-6.07v-3.82h16.49v3.82h-6.07v24.16h-4.35Z"/><path class="cls-7" d="M1053.38,127.28v28H1049v-28Z"/><path class="cls-7" d="M1058.56,155.26v-28h5c6.46,16.8,7.56,19.64,7.9,21h0c-.22-3.5-.25-7.65-.25-12.22v-8.74h3.94v28h-4.83c-6.68-17.8-7.72-20.64-8.07-21.86h0c.21,3.46.22,7.74.22,12.77v9.09Z"/><path class="cls-7" d="M1091.74,147.59l-1.61,7.67h-4.35l6.57-28H1098l6.69,28h-4.58l-1.62-7.67Zm6-3.79c-1.25-5.88-2.15-10-2.57-12.47H1095c-.36,2.53-1.33,7-2.48,12.47Z"/><path class="cls-7" d="M1130.93,147.25c-.13,1.49-.72,8.47-8.15,8.47-7.78,0-8.57-7.29-8.57-14.54,0-8.75,2.48-14.33,8.89-14.33,7.18,0,7.69,6.35,7.79,8.41h-4.32c-.07-.95-.17-4.68-3.54-4.68-3.58,0-4.32,4.6-4.32,10.67,0,5.5.57,10.8,4.15,10.8,3.25,0,3.6-3.61,3.72-4.8Z"/><path class="cls-7" d="M1138.62,147.59l-1.61,7.67h-4.36l6.58-28h5.64l6.69,28H1147l-1.63-7.67Zm5.94-3.79c-1.24-5.88-2.15-10-2.57-12.47h-.11c-.35,2.53-1.33,7-2.47,12.47Z"/><path class="cls-7" d="M1154.18,155.26v-28h5c6.46,16.8,7.56,19.64,7.9,21h0c-.22-3.5-.24-7.65-.24-12.22v-8.74h3.93v28H1166c-6.68-17.8-7.72-20.64-8.06-21.86h0c.2,3.46.21,7.74.21,12.77v9.09Z"/><path class="cls-7" d="M1088.48,453.94V450.6a20.43,20.43,0,0,1,2.6-.23c-2.12-1.13-3.06-2.89-3.06-5.57,0-5.92,5.56-7.85,14.32-7.85,10,0,14.55,3.28,14.55,9.18,0,7.28-6.31,7.71-8,7.79v-4.31c1.08-.08,4.26-.32,4.26-3.61,0-3.48-4.42-4.55-10.81-4.55-6.69,0-10.67.87-10.67,4.31,0,3,2.42,3.86,7.13,3.86h1.5v-4.14h3.74v8.46Z"/><path class="cls-7" d="M1116.46,458.5v8c0,4.54-2.76,7.86-8.14,7.86s-8.22-3-8.22-8.27v-3.25h-11.62V458.5Zm-12.82,4.35v2.76c0,3,1.51,4.38,4.74,4.38,2.9,0,4.52-1.5,4.52-4.08v-3.06Z"/><path class="cls-7" d="M1116.46,482.14h-28v-4.35h28Z"/><path class="cls-7" d="M1102.7,503.91c-10,0-14.68-2.61-14.68-8.92,0-5.94,4.58-8.69,14.7-8.69,9.9,0,14.17,3.21,14.17,8.89C1116.89,501.18,1112.33,503.91,1102.7,503.91Zm.07-13.14c-7.1,0-11.07,1.21-11.07,4.33s3.74,4.35,11,4.35c7.06,0,10.43-1.17,10.43-4.36S1109.48,490.77,1102.77,490.77Z"/><path class="cls-7" d="M1117,244.36h2.62V259h5.87l-.28,2.25H1117Z"/><path class="cls-7" d="M1129.72,244.36v16.89h-2.63V244.36Z"/><path class="cls-7" d="M1142.49,261.25h-2c-.06-.5-.11-.92-.13-1.57a3.43,3.43,0,0,1-3.37,1.85c-3.57,0-4.74-3.36-4.74-8.65,0-6,2-8.78,5.55-8.78,4.39,0,4.65,3.81,4.7,4.82h-2.6c-.05-.66-.19-2.58-2.18-2.58S1135,249,1135,252.87c0,4,.53,6.44,2.61,6.44,1.83,0,2.33-1.46,2.33-4.31v-.9h-2.5v-2.26h5.1Z"/><path class="cls-7" d="M1145.25,244.36h2.62v6.83h4.56v-6.83h2.62v16.89h-2.62v-7.77h-4.56v7.77h-2.62Z"/><path class="cls-7" d="M1160.39,246.67h-3.66v-2.31h10v2.31H1163v14.58h-2.63Z"/><path class="cls-7" d="M1235,403.49v7.4h-2.61V394h4.91c3,0,4.64,1.6,4.64,4.52,0,2.47-1.28,3.54-2.21,3.89,1.39.59,2,1.79,2,4.24v.68a19.83,19.83,0,0,0,.23,3.56h-2.56a14.88,14.88,0,0,1-.27-3.6v-.6c0-2.3-.51-3.2-2.55-3.2Zm0-2.15h1.67c1.9,0,2.64-.92,2.64-2.71a2.17,2.17,0,0,0-2.38-2.48H1235Z"/><path class="cls-7" d="M1254.14,410.89h-2c-.06-.5-.11-.93-.13-1.57a3.42,3.42,0,0,1-3.37,1.84c-3.57,0-4.74-3.35-4.74-8.64,0-6,2-8.78,5.55-8.78,4.39,0,4.65,3.81,4.7,4.81h-2.6c0-.65-.19-2.58-2.18-2.58s-2.75,2.67-2.75,6.53c0,4,.53,6.44,2.61,6.44,1.83,0,2.33-1.46,2.33-4.3v-.91H1249v-2.26h5.1Z"/><path class="cls-7" d="M1256.88,394h4.89c2.8,0,4.39,1.58,4.39,4.22,0,2.18-1,3.19-2,3.54,1.23.48,2.51,1.6,2.51,4.17a4.61,4.61,0,0,1-5,5h-4.81Zm4.2,6.84c2,0,2.55-.8,2.55-2.38a2.12,2.12,0,0,0-2.4-2.36h-1.77v4.74Zm-1.62,8h2c1.67,0,2.61-.92,2.61-2.92s-.87-3-3-3h-1.62Z"/><path class="cls-7" d="M1273.75,394h2.63v14.63h5.87l-.29,2.26h-8.21Z"/><path class="cls-7" d="M1291.92,403.17h-5.5v5.44h6.15l-.33,2.28h-8.41V394h8.35v2.3h-5.76v4.58h5.5Z"/><path class="cls-7" d="M1294.48,394h4.18c4.19,0,5.9,2.76,5.9,8.06,0,5.72-1.61,8.83-6.15,8.83h-3.93Zm2.64,14.72h1.25c2.61,0,3.48-2,3.48-6.63,0-4.09-.87-5.89-3.46-5.89h-1.27Z"/><path class="cls-7" d="M1391.33,496.87h4.89c2.79,0,4.38,1.58,4.38,4.22,0,2.18-1,3.2-2,3.55,1.22.47,2.51,1.6,2.51,4.16a4.62,4.62,0,0,1-5,5h-4.8Zm4.19,6.84c2,0,2.55-.8,2.55-2.38a2.11,2.11,0,0,0-2.4-2.35h-1.77v4.73Zm-1.62,8h2c1.67,0,2.61-.92,2.61-2.93s-.87-3-3-3h-1.63Z"/><path class="cls-7" d="M1405.9,506.36v7.4h-2.61V496.87h4.91c3,0,4.64,1.6,4.64,4.53,0,2.47-1.28,3.53-2.21,3.88,1.4.59,2,1.8,2,4.25v.67a19.83,19.83,0,0,0,.23,3.56h-2.55a14.23,14.23,0,0,1-.28-3.59v-.6c0-2.31-.51-3.21-2.55-3.21Zm0-2.15h1.67c1.91,0,2.64-.91,2.64-2.71a2.16,2.16,0,0,0-2.38-2.48h-1.93Z"/><path class="cls-7" d="M1423.37,506.05h-5.49v5.44H1424l-.33,2.27h-8.4V496.87h8.35v2.31h-5.76v4.58h5.49Z"/><path class="cls-7" d="M1428.83,509.13l-1,4.63h-2.63l4-16.89h3.41l4,16.89h-2.77l-1-4.63Zm3.59-2.29c-.75-3.55-1.3-6-1.55-7.53h-.07c-.21,1.53-.8,4.24-1.49,7.53Z"/><path class="cls-7" d="M1438.23,496.87h4.18c4.19,0,5.9,2.76,5.9,8.06,0,5.72-1.61,8.83-6.15,8.83h-3.93Zm2.64,14.72h1.24c2.62,0,3.49-2,3.49-6.63,0-4.09-.87-5.89-3.46-5.89h-1.27Z"/><path class="cls-7" d="M1450.75,496.87h4.9c2.79,0,4.38,1.58,4.38,4.22,0,2.18-1,3.2-2,3.55,1.22.47,2.5,1.6,2.5,4.16a4.61,4.61,0,0,1-5,5h-4.81Zm4.2,6.84c2,0,2.55-.8,2.55-2.38a2.11,2.11,0,0,0-2.4-2.35h-1.77v4.73Zm-1.62,8h2c1.68,0,2.62-.92,2.62-2.93s-.87-3-3-3h-1.63Z"/><path class="cls-7" d="M1472.9,505.18c0,6-1.57,8.86-5.38,8.86-3.59,0-5.25-2.77-5.25-8.87s1.94-8.56,5.37-8.56C1471.25,496.61,1472.9,499.36,1472.9,505.18Zm-7.93-.05c0,4.29.73,6.69,2.61,6.69s2.63-2.26,2.63-6.67-.71-6.3-2.63-6.3S1465,501.08,1465,505.13Z"/><path class="cls-7" d="M1477.51,509.13l-1,4.63h-2.63l4-16.89h3.41l4,16.89h-2.77l-1-4.63Zm3.59-2.29c-.75-3.55-1.3-6-1.55-7.53h-.07c-.21,1.53-.8,4.24-1.49,7.53Z"/><path class="cls-7" d="M1489.52,506.36v7.4h-2.61V496.87h4.91c3,0,4.64,1.6,4.64,4.53,0,2.47-1.28,3.53-2.21,3.88,1.39.59,2,1.8,2,4.25v.67a18.92,18.92,0,0,0,.23,3.56h-2.56a14.79,14.79,0,0,1-.27-3.59v-.6c0-2.31-.51-3.21-2.55-3.21Zm0-2.15h1.67c1.9,0,2.64-.91,2.64-2.71a2.17,2.17,0,0,0-2.38-2.48h-1.93Z"/><path class="cls-7" d="M1498.9,496.87h4.18c4.2,0,5.9,2.76,5.9,8.06,0,5.72-1.6,8.83-6.14,8.83h-3.94Zm2.65,14.72h1.24c2.61,0,3.48-2,3.48-6.63,0-4.09-.87-5.89-3.46-5.89h-1.26Z"/><path class="cls-7" d="M1109.32,359.49c.14,1.52.8,2.81,2.45,2.81s2.25-.95,2.25-2.44-.7-2.38-2.89-3.43c-2.81-1.33-4-2.53-4-5s1.65-4.43,4.61-4.43c3.61,0,4.53,2.49,4.58,4.62h-2.58c-.09-.92-.34-2.52-2.06-2.52-1.34,0-1.93.89-1.93,2.11s.6,2,2.63,2.94c3,1.4,4.27,2.78,4.27,5.5s-1.6,4.76-5,4.76c-3.71,0-4.87-2.39-5-4.9Z"/><path class="cls-7" d="M1127,356.41h-5.49v5.44h6.14l-.33,2.27h-8.41V347.23h8.36v2.31h-5.76v4.58H1127Z"/><path class="cls-7" d="M1129.56,364.12V347.23h3c3.9,10.14,4.57,11.86,4.77,12.65h0c-.14-2.11-.15-4.61-.15-7.37v-5.28h2.37v16.89h-2.91c-4-10.74-4.66-12.45-4.87-13.19h0c.13,2.09.14,4.67.14,7.7v5.49Z"/><path class="cls-7" d="M1144.28,359.49c.15,1.52.8,2.81,2.45,2.81s2.25-.95,2.25-2.44-.69-2.38-2.88-3.43c-2.81-1.33-4-2.53-4-5s1.66-4.43,4.61-4.43c3.62,0,4.53,2.49,4.58,4.62h-2.57c-.09-.92-.34-2.52-2.07-2.52-1.34,0-1.93.89-1.93,2.11s.61,2,2.63,2.94c3,1.4,4.27,2.78,4.27,5.5s-1.59,4.76-5,4.76c-3.71,0-4.87-2.39-5-4.9Z"/><path class="cls-7" d="M1164,355.54c0,6-1.57,8.86-5.38,8.86-3.59,0-5.25-2.76-5.25-8.87s1.94-8.56,5.37-8.56C1162.31,347,1164,349.73,1164,355.54Zm-7.93,0c0,4.28.73,6.68,2.61,6.68s2.63-2.26,2.63-6.67c0-4.26-.71-6.3-2.63-6.3S1156,351.45,1156,355.5Z"/><path class="cls-7" d="M1169.06,356.73v7.39h-2.61V347.23h4.91c3,0,4.64,1.61,4.64,4.53,0,2.47-1.28,3.53-2.21,3.88,1.39.6,2,1.8,2,4.25v.67a18.78,18.78,0,0,0,.23,3.56h-2.56a14.75,14.75,0,0,1-.27-3.59v-.6c0-2.31-.51-3.2-2.55-3.2Zm0-2.16h1.67c1.9,0,2.64-.91,2.64-2.7a2.18,2.18,0,0,0-2.39-2.49h-1.92Z"/><text class="cls-8" transform="translate(919.09 285.59)">3.3 V<tspan x="0" y="39.28">GND</tspan><tspan x="0" y="117.84">4 (IO)</tspan><tspan x="0" y="157.11">5 (PW)</tspan><tspan x="0" y="196.39">10 (PW)</tspan><tspan x="0" y="235.67">16 (PW)</tspan><tspan x="0" y="274.95">14 (L)</tspan><tspan x="0" y="314.23">12 (D)</tspan><tspan x="0" y="353.51">13 (C)</tspan></text><text class="cls-8" transform="translate(1555.02 260.65)">S1</text><text class="cls-8" transform="translate(1555.02 506.92)">S3</text><text class="cls-8" transform="translate(1452.15 425.87)">S4</text><text class="cls-8" transform="translate(1657.9 425.87)">S2</text><text class="cls-9" transform="translate(922.2 678.37)">0 (12C-D)<tspan x="0" y="39.28">2 (12C-D)</tspan></text><text class="cls-9" transform="translate(850.5 762.54)">V + GND</text><text class="cls-9" transform="translate(841.15 849.83)">CK</text><text class="cls-9" transform="translate(965.84 849.83)">CO</text><text class="cls-9" transform="translate(925.32 849.83)">MI</text><text class="cls-9" transform="translate(884.79 849.83)">MO</text><rect class="cls-2" x="1699.58" y="650.35" width="39.68" height="93.36"/><rect class="cls-4" x="1739.25" y="718.91" width="16.65" height="16.65"/><text class="cls-10" transform="translate(1719.43 781.71)">0</text><text class="cls-10" transform="translate(1719.43 630.92)">1</text><path class="cls-11" d="M868.89,245.47h164.7a46.38,46.38,0,0,1,46.24,46.24V685.53a46.37,46.37,0,0,1-46.24,46.24H868.89"/><rect class="cls-7" x="903.7" y="329.64" width="174.57" height="40.53"/><text class="cls-12" transform="translate(968.96 363.52)">AO</text><line class="cls-13" x1="902.14" y1="527.59" x2="1079.83" y2="527.59"/><line class="cls-13" x1="902.14" y1="644.49" x2="1079.83" y2="644.49"/><path class="cls-3" d="M1179.46,305a37.77,37.77,0,0,0-17-31.49h-41.34a37.58,37.58,0,0,0-3,60.79h47.3A37.68,37.68,0,0,0,1179.46,305Z"/><circle class="cls-14" cx="1665.85" cy="653.4" r="44.79"/><text class="cls-15" transform="translate(1651.8 668.36)">1</text><circle class="cls-14" cx="1626.68" cy="937.7" r="44.79"/><text class="cls-15" transform="translate(1612.61 952.65)">2</text><circle class="cls-14" cx="1276.68" cy="937.7" r="44.79"/><text class="cls-15" transform="translate(1262.63 952.65)">3</text><circle class="cls-14" cx="840.77" cy="470.19" r="44.79"/><text class="cls-15" transform="translate(826.72 485.15)">4</text><circle class="cls-14" cx="903.94" cy="141.68" r="44.79"/><text class="cls-15" transform="translate(889.89 156.63)">5</text><circle class="cls-14" cx="1367.66" cy="141.68" r="44.79"/><text class="cls-15" transform="translate(1353.61 156.63)">6</text><circle class="cls-14" cx="1209.72" cy="292.04" r="44.79"/><text class="cls-15" transform="translate(1195.67 306.99)">7</text><circle class="cls-14" cx="1334.81" cy="468.93" r="44.79"/><text class="cls-15" transform="translate(1320.76 483.89)">8</text><circle class="cls-14" cx="1573.61" cy="369.11" r="44.79"/><text class="cls-15" transform="translate(1559.56 384.07)">9</text><circle class="cls-14" cx="1337.33" cy="567.49" r="44.79"/><text class="cls-15" transform="translate(1309.21 582.44)">10</text><path class="cls-16" d="M74.77,114.38A7.2,7.2,0,1,0,82,121.56,7.2,7.2,0,0,0,74.77,114.38ZM75,128.24a6,6,0,1,1,6.06-6A6,6,0,0,1,75,128.24Z"/><path class="cls-16" d="M89.47,116.11a6,6,0,1,0,5.91,6A5.94,5.94,0,0,0,89.47,116.11Zm-.57,11.06a4.68,4.68,0,1,1,4.63-4.68A4.67,4.67,0,0,1,88.9,127.17Z"/><path class="cls-16" d="M76,118.62a4.26,4.26,0,1,0,4.25,4.25A4.27,4.27,0,0,0,76,118.62Zm-2,4.3a1.27,1.27,0,0,1-1.21-1.29,1.26,1.26,0,0,1,1.26-1.16,1.23,1.23,0,0,1,0,2.45Z"/><path class="cls-16" d="M88.22,119.65a3.35,3.35,0,1,0,3.29,3.41A3.33,3.33,0,0,0,88.22,119.65Zm-1.42,3.5a1.05,1.05,0,0,1-1.1-1.07,1,1,0,0,1,1-1,1.06,1.06,0,0,1,0,2.12Z"/><path class="cls-16" d="M110.1,153.74a43.77,43.77,0,0,1-.71-9.07c-.07-9.18.07-18.36,0-27.54-.12-10.45-.19-20.89,0-31.34a2.8,2.8,0,0,1,.23-1.14,6.73,6.73,0,0,0,.43-3.41,3.78,3.78,0,0,0-1.7-2.88,23.45,23.45,0,0,0-7.66-3.5,67.73,67.73,0,0,0-18.05-2c-2,0-4-.36-5.92.42a.8.8,0,0,1-.89-.4c-.21-.34.19-.41.35-.56A23.27,23.27,0,0,0,82,63.88a1.21,1.21,0,0,0-1.22.65l-3,4.27a3.29,3.29,0,0,1-1.1,1,.81.81,0,0,1,.3-.9,10.59,10.59,0,0,0,1.58-2c1.79-2.71,3.28-5.59,4.82-8.44a7.82,7.82,0,0,0,.78-2.22c.22-1.11.44-2.22.68-3.33.05-.28.06-.68.51-.56s.27.39.22.68a8.12,8.12,0,0,0-.17,2.14,1.77,1.77,0,0,0,.51-1,25.38,25.38,0,0,0-.71-13.9,7.7,7.7,0,0,0-2.94-3.94l-2-1.34c-2.82-2.2-7.33-3.91-13.34-.45h0l-.57.21a.35.35,0,0,0-.27.29c-.67.4-1.31.82-1.91,1.24a2.22,2.22,0,0,0-1,.66c-.2.2-.42.39-.63.57a32.93,32.93,0,0,0-2.72,2.35.7.7,0,0,0-.57.24,1.17,1.17,0,0,0-.34.67,23.75,23.75,0,0,0-5.39,8.08h0a3.27,3.27,0,0,0-.25.64,26.79,26.79,0,0,1-1.34,3.56A27.89,27.89,0,0,0,50,58.24a42.05,42.05,0,0,0-1.28,11.55,19.89,19.89,0,0,0,3.33,10.38c.2.28.4.6.16,1A3.17,3.17,0,0,0,52,84.06,22.08,22.08,0,0,1,53,91q.24,13.42.63,26.85c.08,2.57,0,5.14-.08,7.71-.09,1.78,0,3.57.09,5.35.13,6.75.29,13.49.75,20.23a16.67,16.67,0,0,1-.12,3.53,6.73,6.73,0,0,0,3.49,6.94,5.25,5.25,0,0,1,1.44,1,3,3,0,0,0,1.8,1,1.9,1.9,0,0,1,.72.23c1.25,1,2.82,1.11,4.26,1.57a24.34,24.34,0,0,0,4.1.66c2.29.34,4.57.79,6.88.91a66,66,0,0,0,11.24-.38,63.89,63.89,0,0,0,15.12-3.75,5.74,5.74,0,0,0,1.75-1,27.05,27.05,0,0,1,3.31-2.43,4.07,4.07,0,0,0,1.8-2.91A6.59,6.59,0,0,0,110.1,153.74Zm-13.58-65a23.24,23.24,0,0,1,5.16-.89c.06,0,.12.07.36.21a25.66,25.66,0,0,1-5.34,1.31c-.23,0-.43,0-.46-.31S96.36,88.8,96.52,88.74ZM79.49,86c.06-.35.37-.28.61-.3s.42,0,.63,0v0c.32,0,.64,0,1,0s.41.28.42.55-.08.44-.32.47a3,3,0,0,1-1.9-.17C79.68,86.42,79.44,86.27,79.49,86Zm4.92,3a11,11,0,0,1-5.87.09A10.84,10.84,0,0,1,84.41,89Zm-26.7,1.21a2,2,0,0,1-.11-1A2.15,2.15,0,0,1,59.34,88a11.29,11.29,0,0,1,2.64.56,10.57,10.57,0,0,0,2.23.49c.42,0,.4.27.25.49a1.62,1.62,0,0,1-1.45.78c-1.55,0-3.1,0-4.65,0C58.13,90.28,57.74,90.3,57.71,90.21Zm7,68.36c-.08.54-.51.5-.92.48-1.28-.25-2.63-.05-3.89-.53-.57-.21-1.17-.36-1.16-1.15,0-.09-.13-.18-.21-.25a.57.57,0,0,1-.16-.8c.21-.33.54-.3.86-.16l1.67.69a22.15,22.15,0,0,0,3.09,1C64.42,157.92,64.84,158,64.75,158.57Zm32-34.84A2.32,2.32,0,0,0,98.19,126a1.53,1.53,0,0,1,1,1.92,7.47,7.47,0,0,1-.53,1.86,1.52,1.52,0,0,1-1.93,1.06c-1.42-.22-1.77-.05-2.37,1.26a4.58,4.58,0,0,0-.58,1.25,2.08,2.08,0,0,0,.36,1.51,1.59,1.59,0,0,1-.22,2.31,12,12,0,0,1-1.49,1.26,1.53,1.53,0,0,1-2.24-.22c-1-1-1-1-2.3-.28a5.21,5.21,0,0,1-1,.4,1.31,1.31,0,0,0-1,1.35,1.47,1.47,0,0,0,0,.21c0,1.71-.53,2.22-2.27,2.22-.64,0-1.29-.11-1.93-.14a.62.62,0,0,1-.57-.44l-.39-1c-.36-1-.73-1.26-1.83-1.22-.11,0-.22-.07-.33-.09a2.13,2.13,0,0,0-2.58,1.25c-.46.79-.73.9-1.58.6-.58-.2-1.16-.44-1.74-.67-1-.41-1.3-.8-1.09-1.92.31-1.71-.23-2.45-1.62-3.32a2.38,2.38,0,0,0-2.13-.19c-1.4.46-1.58.37-2.41-.84-.32-.46-.55-1-.86-1.43a.93.93,0,0,1,.15-1.36c1.48-1.1,1.45-2.43.8-4-.35-.84-.62-1.16-1.54-1.22-1.33-.08-1.66-.39-1.76-1.72a8.16,8.16,0,0,1,.05-2.15A1.33,1.33,0,0,1,63.49,121c1.6-.19,1.7-.29,2.12-1.87.08-.29.18-.57.26-.87a1.41,1.41,0,0,0-.65-1.79c-1.08-.78-1.21-1.33-.55-2.46a12.63,12.63,0,0,1,1.09-1.61,1.34,1.34,0,0,1,1.85-.41c1.44.66,1.68.62,2.82-.44.23-.23.48-.43.71-.66a1.59,1.59,0,0,0,.4-1.84c-.51-1.32-.3-1.8,1-2.39.51-.23,1-.47,1.53-.68a1.31,1.31,0,0,1,1.84.57c.19.29.34.61.55.88a1.18,1.18,0,0,0,1.21.52c.68-.12,1.36-.26,2-.41a1.54,1.54,0,0,0,1.2-1.3c.37-1.73.5-1.86,2.24-1.55a16.74,16.74,0,0,1,1.79.45c.89.29.91,1.07.9,1.83,0,1.25.12,1.42,1.3,1.88.39.16.76.35,1.14.53a1.49,1.49,0,0,0,1.78-.3c1.36-1.23,1.37-1.22,2.78-.1.27.22.54.44.8.67.92.83,1,1.17.47,2.3a2.91,2.91,0,0,0,1,3.93,2.53,2.53,0,0,0,1.7.44c1.38,0,1.48.07,1.92,1.38a18.68,18.68,0,0,1,.5,2.09.69.69,0,0,1-.36.81l-.77.47A2.71,2.71,0,0,0,96.71,123.73ZM99.92,90c.25-.06.45-.38.8-.12C100.47,90.14,100.18,90,99.92,90Zm7.18,64.47a9.2,9.2,0,0,1-4.07,2.41l-.43.1a.63.63,0,0,1-.67-.53c-.07-.38.14-.54.49-.62a7.89,7.89,0,0,0,3.86-2.2c.31-.3.63-.53,1-.15S107.41,154.16,107.1,154.45Z"/><path class="cls-16" d="M184.28,153.29c-.17-.21-.21-.67-.68-.43,0,0-.13-.11-.2-.17-.1-.24,0-.52,0-.73a.79.79,0,0,0-.08-.16.27.27,0,0,1,.08.16.42.42,0,0,0,.2.26c.38-.15.19-.43.1-.63a16.25,16.25,0,0,1-.71-2.72c-.11-.49.08-1-.59-1.25-.24-.08-.17-.45-.11-.64.33-1-1-1.65-.56-2.65,0,0-.18-.07-.22-.13-.38-.59-.91-1.15-.42-1.92.09-.14,0-.16-.06-.26a2.57,2.57,0,0,1-.58-1.85c0-.17,0-.33-.25-.32s-.23.14-.2.29a.52.52,0,0,1-.3.56c-.13.08-.16,0-.2-.11a.85.85,0,0,1,0-.73c0-.12.18-.21.29-.29.29-.19.34-.33.07-.63a1.43,1.43,0,0,1-.43-1.29c0-.14.31-.25.12-.4a.55.55,0,0,0-.57-.15c-.19.07-.34.25-.52.21-.05-.72-.07-1.41-.18-2.09-.05-.3-.08-.5.18-.72s.5-.47-.1-.57c-.11,0-.16-.16-.14-.29.06-.41-.21-.74-.29-1.1-.13-.61-.6-1-.62-1.73s-.58-1.53-.62-2.36c0-.34-.45-.23-.48-.59a6.67,6.67,0,0,0-.83-2.44,11.6,11.6,0,0,1-.87-1.81,1.06,1.06,0,0,0-1.06-.8c-.84,0-1.67.12-2.51,0a1,1,0,0,0-1,.56,10.73,10.73,0,0,0-1.1,2.38q-2.81,10.53-5.63,21a32.12,32.12,0,0,0-1.25,5,49.55,49.55,0,0,0-.23,6.45c0,.91.65,1.51.85,2.3,0,.16.36.41.47.68,0,.08.15.2.2.09.15-.35.5-.07.68-.29.07.29-.08.57.21.89.06-.47.43-.56.67-.77.13.2-.05.46.19.7.17-.29.57-.35.66-.72.07-.1.08-.29.27-.17,0,.1.15.19.2.14a10,10,0,0,0,2.18-3.1,10.39,10.39,0,0,1,.6-1.56.61.61,0,0,0,.16-.36c0-.32.26-1.64.3-1.87.09-.57.73-.51,1-.93.14-.23.29-.82.82-.35.12.1.14-.1.19-.19s.14-.16.29,0a.71.71,0,0,0,1.18-.15c.27-.42.7-.44.92,0,.11.19.2.21.38.13l1-.37c.06-.23-.13-.22-.27-.26s0,0,0,0h.06a.58.58,0,0,1,.18,0c.12.08.25.16.36.25.44.09.48-.1.29-.44s.07-.53.27-.49a1.27,1.27,0,0,1,.87.47c.43.59.36,1.32.6,1.91.79,1.92,1.25,4,2.34,5.77.13.23.07,1.09.78.49.49.43.54,0,.61-.39.39.6.72.64.87.09.35-1.27,1.44-1.93,2.16-2.88A3.67,3.67,0,0,0,184.28,153.29Zm-9.58-2.71c-.08,0-.21,0-.19-.12a.4.4,0,0,1,.16-.26c.14-.06.13.13.2.19S174.8,150.57,174.7,150.58Zm-.67-4.05c-.86.14-1.74.25-2.61.36-.13,0-.28.09-.36-.08a.33.33,0,0,1,0-.26c.72-.54.25-1.38.51-2.05.1-.25.06-.59.16-.87.45-1.21.48-2.51.91-3.89a18.1,18.1,0,0,1,.91,2.13c.3,1.14.86,2.16,1.25,3.26C175.15,146.06,175,146.38,174,146.53Zm1.83,4a.25.25,0,0,1-.36-.06c-.11-.15.06-.18.13-.24l.39-.35C176.3,150.16,176.07,150.33,175.86,150.5Zm4.1-9.37c-.1,0-.15-.06-.14-.15s.06-.12.1-.12.09.06.14.11S180,141.12,180,141.13Zm.45,2c-.06-.21-.18-.35,0-.49a.17.17,0,0,1,.17,0C180.67,142.83,180.54,142.94,180.41,143.15Zm.6,2.31c-.14,0-.27.06-.23-.21s0-.35.24-.38.21.14.2.27S181.3,145.48,181,145.46Zm1.05,3.17c-.29-.11-.08.25-.27.27l-.31-1.08c0-.16-.08-.34.11-.42s.22.12.29.22a8.05,8.05,0,0,1,.49.66.39.39,0,0,1,0,.51C182.17,149,182.18,148.67,182.06,148.63Zm.39.57c.4.46.4.46.53,1.56C182.35,150.33,182.44,149.78,182.45,149.2Z"/><path class="cls-16" d="M211.09,156.21c.17-.59-.24-.44-.53-.49s-.53-.16-.48-.67a9.63,9.63,0,0,0,0-3.63,1.49,1.49,0,0,1,0-1.08.52.52,0,0,0,.07-.46c-.4-1.06-.09-2.15-.18-3.23,0-.1,0-.24.13-.27s.2.09.19.21c0,.35.22.62.33,1.07a23.69,23.69,0,0,0-.15-4.57c0-.89-.54-1.78.21-2.61,0,0-.05-.09-.07-.15a6,6,0,0,1,.12-3.28c.27-.73-.17-1.55.31-2.24-.46-1-.08-2.14-.2-3.2,0-.22,0-.35.3-.43s.3-.9-.06-1.07c-.14-.06-.23-.09-.24-.26a28.17,28.17,0,0,1,.07-3.56,3.93,3.93,0,0,0-.33-2.06c-.18-.33-.33-.94-1.06-.72a2.36,2.36,0,0,1-2-.55c-.46-.33-1.43-.27-1.62.2a5.94,5.94,0,0,0-.49,1.51,134.63,134.63,0,0,0-1.46,13.88,24.34,24.34,0,0,0-.13,3.4c.09.83-.05,1.64.11,2.55-.32-.26-.21-.54-.33-.77a15.09,15.09,0,0,1-1.32-3.15c-.09-.32.21-.57,0-.85-.2-.06-.54.67-.59,0a1.4,1.4,0,0,0-.38-1,3.06,3.06,0,0,1-.75-2.07c0-.12.07-.37-.19-.34-.08,0-.14.15-.29.35.22-.92-.88-1.44-.63-2,.35-.77-.29-1.18-.41-1.7a5.58,5.58,0,0,1-.28-1.84c-.78.28-.64-.55-1-.76s.14-.41.17-.81c-.44.17-.5-.05-.65-.4s.14-1.08-.56-1.26c0,0,0-.08,0-.12.13-.78-.48-1.24-.85-1.73a14.9,14.9,0,0,1-1.63-2.32,1.23,1.23,0,0,0-1.74-.52,1.93,1.93,0,0,1-1.77.26c-.15-.06-.38-.19-.52,0-.62.63-1.39,1.12-1.41,2.2-.2,10.06-.44,20.12-.62,30.18,0,1.32.05,2.68,1.35,3.61.51.37.85.68,1.39.16.31-.31.79.14,1.09-.24.33.46.48.11.68-.14s.24-.23.41,0,.22.06.29-.09c.31-.73.93-1.26,1.3-2,.09-.18.27-.33.18-.57a7.45,7.45,0,0,1-.17-2.4c0-.14,0-.37.05-.39.61-.21.29-.61.22-1a2.18,2.18,0,0,1,0-1.29c.16-.33.56-.54-.13-.8s.61-.51.08-.85l-.06-.05c-.16-.11-.14-.24-.08-.42.1-.33.46-.71-.11-1a.57.57,0,0,1,0-.52c.49-.42.12-.9.16-1.35,0-.23-.18-.41-.15-.66a22.12,22.12,0,0,0,.18-3.26c0-.23-.1-.5.11-.74a.74.74,0,0,1,.12.16c1.45,3.74,3.43,7.22,5.12,10.84a19,19,0,0,0,4.42,6.39,4.58,4.58,0,0,1,.34.43c.08.11.11.21.31.17.43-.1.85,0,1.31-.23a3.11,3.11,0,0,0,1.25-.9c.11-.17.29-.46.39-.44.65.11,1.16-.55,1.83-.32.17.06.29-.1.37-.25a3.57,3.57,0,0,1,1-1.14C211.44,156.26,211,156.4,211.09,156.21Zm-11.15-18.06c-.16-.1-.28-.23-.16-.45a.38.38,0,0,1,.31.38S200,138.17,199.94,138.15Zm3.12,6.43c-.22,0-.36-.1-.38-.27a.25.25,0,0,1,.24-.28c.21,0,.26.15.28.31S203.17,144.57,203.06,144.58Zm6.85-7.82c.36.3.23.63.17.94A1.23,1.23,0,0,1,209.91,136.76Zm-.59-7.34c.11,0,.17.08.15.18s-.06.18-.18.16-.15-.09-.16-.19A.16.16,0,0,1,209.32,129.42Zm-.15,2.08c.17-.12.13.09.14.17a.91.91,0,0,1-.05.21C209.1,131.77,209,131.61,209.17,131.5Zm0,3.58c.24.62-.18,1.18,0,1.74,0,0-.09.15-.16.2a.16.16,0,0,1-.24-.07c-.16-.38.08-.84-.26-1.22C208.5,135.68,208.91,135.27,209.21,135.08Zm-.12,3.15c-.06-.24-.13-.47-.2-.71l.18-.06A.69.69,0,0,1,209.09,138.23Zm-.87,1.56c.05-.37-.42-.81.15-1.17.18.39,0,.74,0,1.09Zm.2-5.37c.19,0,.15.19.16.32s0,.36-.18.37-.18-.22-.18-.36S208.16,134.39,208.42,134.42Zm-.1,2.82c0,.08.12.14.11.19-.07.29.17.64-.16.88,0,0-.13,0-.19,0C208.32,138,207.91,137.53,208.32,137.24Zm0,2.89.27-.15.15.12c0-.11,0-.17-.14-.18a.15.15,0,0,0,0-.07c.17,0,.22-.3.55-.27-.27.14.41.77-.42.52-.29.2-.29.59-.5.87C207.91,140.62,208.12,140.38,208.33,140.13Zm-.26,4.77c0-1,0-1.93,0-2.84,0-.14,0-.31.16-.32s.22.18.24.34a1.59,1.59,0,0,0,.2.86c.1-.28.18-.49.28-.78.19.52.66.91.2,1.44a.23.23,0,0,1-.2,0l.06-.13c0-.13.05-.32-.16-.28s-.27.43-.36.66.1.22.26.2l.06-.13a.64.64,0,0,1,.1.13C208.84,144.47,208.49,144.64,208.07,144.9Zm.73,8.21s-.16,0-.18-.05c-.11-.2.06-.28.21-.42A.35.35,0,0,1,208.8,153.11Zm.49-1.08c-.2-.07-.09-.38-.36-.39-.07.23-.13.46-.23.86a3.66,3.66,0,0,1-.08-1.52c-.09-.33-.18-.65-.26-1-.24-.41-.07-.85,0-1.26.08-.86-.24-1.68-.13-2.53,0-.25,0-.52.33-.61.07,1,.13,1.92.22,2.87,0,.18-.16.51.26.51,0-.54.3-1.06-.07-1.65A1.66,1.66,0,0,1,209,146c.08-.16.32-.34-.15-.47-.25-.06,0-.56,0-.87,0-.1.1-.23.23-.18.28.1.33.34.35.61,0,.72.1,1.43.14,2.15a3.06,3.06,0,0,1-.32,1.81c-.06.12-.14.2-.27.16v0s0,.05,0,.08,0,0,0,0l-.46.8c.63.17.07.56.15.83.38.11.55-.25.83-.45A2.19,2.19,0,0,1,209.29,152Zm.29-2.53c0,.07-.32.34-.41-.05a.92.92,0,0,1,.25-.44C209.8,149.06,209.65,149.34,209.58,149.5Zm.21-6.93c-.35,0-.12-.42-.24-.59s.08-.43.26-.42.32.32.35.52A.41.41,0,0,1,209.79,142.57Z"/><path class="cls-16" d="M209,149.17l.06,0,0-.21A.15.15,0,0,0,209,149.17Z"/><path class="cls-16" d="M208.61,150.14l-.25-.14C208.41,150.1,208.45,150.23,208.61,150.14Z"/><path class="cls-16" d="M208.62,151h.14C208.71,150.91,208.66,150.91,208.62,151Z"/><path class="cls-16" d="M160.56,133.45a.21.21,0,0,1-.21-.22c0-.57.22-1.22-.2-1.66s-.19-.85-.55-.93-.41-.3-.37-.57a1,1,0,0,0-.39-1,.69.69,0,0,1-.31-.45,4.61,4.61,0,0,0-1.26-2.37,9.29,9.29,0,0,0-4.23-3,8.93,8.93,0,0,0-7.33.14,27.28,27.28,0,0,0-3.77,2.71,4.5,4.5,0,0,0-.82.92c-1.39,1.83-1.8,4-2.35,6.17-.31,1.21-.19,2.54-.48,3.77a50.82,50.82,0,0,0-.61,7c-.15,1.64.37,3.26.21,4.91.59.66.29,1.47.34,2.21,0,.08.1.15.15.24a5.26,5.26,0,0,1,.69,2,2.68,2.68,0,0,0,.79,1.64c.39.43.15,1.08.72,1.45a1.68,1.68,0,0,1,.9,1.38c1.14.43,1.76,1.54,2.89,2.05a4.74,4.74,0,0,0,2.57.4,17.86,17.86,0,0,1,3.58,0,.9.9,0,0,0,.86-.38c.15-.31.23-.31.49-.15.09.06.58.46.44-.21a.33.33,0,0,1,.14-.21c.43.1.73-.29,1.18-.26s1.17.24,1.59-.37a.17.17,0,0,1,.18,0c.67.36.87-.33,1.29-.55-.1-.23-.5.14-.51-.26.41-.41.82-.82,1.24-1.21a.58.58,0,0,0,.23-.61.88.88,0,0,1,.65-1.19c.67-.08.36-.36.16-.62s.11-1.49.24-1.84c.22-.55.79-.24,1-.59-.22-.14-.95-.12-.18-.56.08,0,.09-.3.06-.45a16.05,16.05,0,0,1-.57-3.18,3.86,3.86,0,0,0-.55-1.62c-.17-.33-.41.22-.65.05a.1.1,0,0,1-.05,0c-.26-.35-.45-.15-.66.06s-.2.27-.33.12c-.28-.31-.59-.09-.88-.1s-.43,0-.57-.19-.55-.32-.69,0-.61-.13-.69.3-.41.82-.43,1.13c-.13,1.44-.73,2.83-.51,4.31,0,.18.05.5,0,.54-.61.3-.53.93-.71,1.42a6.83,6.83,0,0,1-1.55,2.52c-.41.4-1.11.06-1.58.44,0,0,0-.15-.08-.22a5.47,5.47,0,0,0-.63-1c-.18-.2-.66-.76-.89-1-.44-.44-.06-1.12-.58-1.55s-.41-1.4-.7-2.08c-.15-.35.06-.83-.54-.94-.28-.05-.18-.34-.18-.53,0-.93,0-1.86,0-2.79a1.14,1.14,0,0,0-.46-.88c-.43-.35-.42-.46.06-.64.21-.08.57-.21.34-.44-.36-.39-.1-.53.11-.79s.34-.35.12-.68a.5.5,0,0,1-.82.13.61.61,0,0,1,0-.77,2,2,0,0,0,.46-1.58c0-.25-.33-.37-.18-.67s.44-.85-.13-1.2c-.14-.08,0-.26,0-.37.63-.87-.17-1.94.39-2.83a.25.25,0,0,0-.09-.09c-.39-.24-.19-.52,0-.77a1.42,1.42,0,0,0,.23-.85,2.51,2.51,0,0,1,.19-1.49c.46-.73-.51-1.58.44-2.38.66-.56.72-1.73,1.27-2.56s1.35-1.16,2-.57a9.87,9.87,0,0,1,3.17,4.94,19.94,19.94,0,0,0,1.52,4.81c.32.58.58,1,1.28.55s1.5-.49,2.18-1a16.4,16.4,0,0,1,1.59-1.12c.3.16,0,.28,0,.39.26.21.36-.32.61-.09.07.07,0,.36.21.21s.32-.25.2-.46a.65.65,0,0,1,0-.65c.3.51.56.21.65-.07S161.32,133.53,160.56,133.45ZM157.23,156c.06.3-.09.42-.26.58C156.82,156.26,157,156.14,157.23,156Zm-10.37.74a.88.88,0,0,1,.28.65C146.63,157.32,146.78,157.06,146.86,156.73Zm.45-1.34c-.29,0-.41-.29-.67-.47C147.14,154.8,147.46,154.82,147.31,155.39Zm-1.43-2.59h0c0-.14.05-.25.23-.4,0,.32.12.59-.1.83h0c-.07.18-.14.36-.21.56C145.19,153.39,146,153.13,145.88,152.8Zm.31,3.2c.12.15.29.33.19.49s0,.66-.34.64-.3-.36-.21-.62-.31-.22-.32-.42c0-.48-1-.34-.71-1-1.16.29-.5-.85-.92-1.16-.24-.18,0-.36.08-.6Z"/><path class="cls-16" d="M146,153.23h0c0-.16.18-.37-.13-.43h0C146,152.91,146,153.08,146,153.23Z"/><path class="cls-16" d="M219.46,81.81a7.84,7.84,0,0,0-.56,2.87c0,.3-.45.16-.49.54a5.53,5.53,0,0,1-1.19,2.24.89.89,0,0,1-1,.44,12.63,12.63,0,0,0-3.25-.17c-.44.08-.53.27-.56.68-.12,1.92-.25,3.85-.21,5.76s-.11,4.07,0,6.11a26.86,26.86,0,0,0-.07,2.84,21.7,21.7,0,0,1,0,4,5.1,5.1,0,0,0,.05,2.51c.21.47-.23,1.11-.2,1.73a20.42,20.42,0,0,1-.21,2.45c0,.15-.07.38,0,.46.42.43.19.84.06,1.28s-.4,1,0,1.48a.79.79,0,0,1,0,.86c-.2.29-.17.5.41.66a1.08,1.08,0,0,0-1,.82,3,3,0,0,1-4,1.67s-.05,0-.07,0c-1,.13-.78-.7-.93-1.2a18.87,18.87,0,0,1-.62-6.31c.17-4.4.3-8.81.28-13.21,0-3.06.18-6.11,0-9.17a17.88,17.88,0,0,1,.27-2.9c0-.14,0-.27.05-.41,0-.56-.06-.94-.78-.83a11.52,11.52,0,0,1-4.26-.05c-.56-.12-1.14-.19-1.69-.36s-.46-.6-.6-.95-.41-.5-.13-1a3.05,3.05,0,0,0,.56-2.48.29.29,0,0,1,.09-.36c.11-.08.26-.19.27-.3.13-1.31.94-1.16,1.94-1.12a29.9,29.9,0,0,0,5.83-.09c.14,0,.33-.07.41,0,.71.6,1.55.33,2.33.34,2.32,0,4.64,0,6.94.22a5,5,0,0,1,1.42.41,1.3,1.3,0,0,0,.92.14Z"/><path class="cls-16" d="M125.52,131.77a20.64,20.64,0,0,1,0,3.6c-.13.86.17,1.82-.59,2.63a2.29,2.29,0,0,1-1.76.55c-.42,0-.72-.56-.84-1a3.58,3.58,0,0,1-.11-1c.09-4.38.2-8.76.3-13.14,0-1.07.26-1.29,1.3-1.35a.87.87,0,0,0,.32-.11c.53-.33.84-.06,1.13.38a9.18,9.18,0,0,1,1.58,2.77c0,.09.34.16.46.33s0,.32.12.43a1.89,1.89,0,0,0,.25,1.44c.55.58.3,1.54,1,2,.23.12.11.31.12.47s0,.55.41.71c.08-1.21.13-2.4.25-3.58.13-1.36.32-2.71.49-4.06,0-.23.14-.45.18-.67.12-.55.48-.55.89-.38s.68.44,1.12.26c.2-.08.19.12.27.21a2.34,2.34,0,0,1,.31,1.65,2.12,2.12,0,0,0,.15,1.33c.18.28-.23.55-.18.82a15.93,15.93,0,0,1-.12,3.72c0,1,.35,2.14,0,3.09-.46,1.17,0,2.31-.19,3.45,0,.11-.08.25.08.27.32.06.62.34.48.51s-.36.7-.78.72a1.81,1.81,0,0,0-1,.49c-.69.57-1,.5-1.61-.11-1.62-1.56-2.19-3.72-3.25-5.6-.2-.36-.37-.75-.55-1.12C125.42,131.34,125.72,131.71,125.52,131.77Z"/><path class="cls-16" d="M121.06,128c.1,1.74-.22,3.36-.11,5s.06,3,.07,4.44c0,1-.13,1.08-1.09,1.14a7.68,7.68,0,0,0-.82.11,1.3,1.3,0,0,1-1.68-1.37c0-.42,0-.84,0-1.25-.06-2.64-.13-5.28.06-7.91.12-1.74.15-3.47.17-5.21,0-1,.28-1.26,1.3-1.35a4.41,4.41,0,0,0,1-.1c.66-.19.79.16.85.69A25.16,25.16,0,0,1,121.06,128Z"/><path class="cls-16" d="M178.05,101.88c-.16-.13-.36.12-.53-.09,0-.24.5-.49.22-.69-.5-.36-.18-.6,0-.89.08-.12.28-.38.17-.37-.82,0-.64-.78-.95-1.13-.24,0-.14.45-.47.27a.45.45,0,0,1-.21-.53,1.62,1.62,0,0,0-.62-1.45c-.49-.54-1.21-.56-1.75-1-.16-.12-.29-.16-.33-.44-.11-.72.81-1.28.27-2,0,0,.13-.18.2-.27a6.29,6.29,0,0,0,1.41-4.22,9.71,9.71,0,0,1-.1-1.22,11.24,11.24,0,0,0-.55-4.15l-.55.59c-.18-.4-.2-.68.11-.93s.33-.53,0-.74-.22-.37-.26-.6-.29-.82-.66-.71a.61.61,0,0,1-.82-.56c0-.71-.51-.69-.93-.82-.13,0-.29,0-.37-.14a1.84,1.84,0,0,0-1.57-.77,48.67,48.67,0,0,0-5.25-.56c-1.09,0-2.18,0-3.27,0-.56,0-1.08,0-1.22.66,0,.16-.19.21-.32.24a1.51,1.51,0,0,0-.92.86,5.19,5.19,0,0,0-.68,2.85q.07,8.1.14,16.21.08,9,.16,18.08c0,.21-.14.5.13.62.58.27,1.18.49,1.78.72a.45.45,0,0,0,.28,0,11.75,11.75,0,0,1,3.19,0,7.54,7.54,0,0,0,2.54.18,11.63,11.63,0,0,1,2.56-.44,3,3,0,0,0,1.62-.59c.35-.28.73-.25,1-.44s.24.41.35.11c.18-.51.74-.42,1-.77a1.4,1.4,0,0,1,.79-.54c.53-.09,1-.35.83-1,.33,0,.54.41.86,0a6.12,6.12,0,0,0,1.18-2.13,29.76,29.76,0,0,0,.61-3.52c.11-.68.12-1.36.28-2a6.5,6.5,0,0,0,.16-2.55,5.46,5.46,0,0,1,.42-2.92C178.1,101.92,178.11,101.9,178.05,101.88ZM165.82,85.12a6.68,6.68,0,0,1,2.71.61c.53.18.77.77,1.1,1.2.45.59.8,1.25,1.23,1.85a.64.64,0,0,1,0,.88,4,4,0,0,0-.77,2.07.94.94,0,0,1-.17.51,8.77,8.77,0,0,1-4.4,2.87c-.29.07-.41.06-.42-.28-.14-2.87-.3-5.73-.42-8.6C164.6,85.12,164.64,85.12,165.82,85.12Zm7.37,22.51a2,2,0,0,0-.34,1.23c.06.34-.27.45-.36.66-.5,1.1-1.77,1.08-2.52,1.82a2,2,0,0,1-1.05.21c-.48,0-.63.24-.75.82-.14-.59-.32-.63-.69-.39-.82.55-1.73.26-2.61.15-.25,0-.38-.15-.18-.42a.45.45,0,0,0,.09-.31,9.3,9.3,0,0,1,.1-2.58,25.57,25.57,0,0,0,.22-4.63c0-.53.2-1,.06-1.59-.07-.28.19-.19.31-.22a16.86,16.86,0,0,1,6-.18,2.51,2.51,0,0,1,1.69,1.29c.12.2.14.46.27.64C174.35,105.37,173.74,106.51,173.19,107.63Z"/><path class="cls-16" d="M134.69,114.28c-.12,0-.2.24-.39.11-.6-.42-.9-.4-1.36.16-.23.27-.46.26-.75,0l.46-.35a8.2,8.2,0,0,1-3.58-2.26,2.29,2.29,0,0,1-.36-2.49c0-.36-.32-.16-.5-.19s-.32.3-.52.41c-.15-.32.29-.37.21-.63-.24-.06-.25-.52-.59-.37-.69.3-.36-.29-.34-.45s.25-.32.34-.51.39-.65.22-.8c-.38-.31-.34.36-.62.4l-.13,0c-.42-.75.24-1.63-.31-2.37-.17.23-.46.33-.54.65s-.35.16-.35,0c0-.41-.35-.66-.4-1s-.3-1,.38-1.28a4.08,4.08,0,0,1,1.47-.26c.66-.07,1.09-1,1.89-.46.17.11.22-.25.22-.41a.79.79,0,0,1,.58-.78,2,2,0,0,0,.93-.65,5.45,5.45,0,0,0,1.83-4.69,1.83,1.83,0,0,1,.82-1.79.83.83,0,0,0,.18-.8c-.54-.07-.28-.41-.23-.62a9.63,9.63,0,0,0,.35-1.12c.06-.5.46-1,.07-1.53-.28-.35-.45-.66-.18-1.09.09-.13.2-.46,0-.5-.49-.16-.24-.57-.35-.84s.18-1-.54-1.17c0,0,0-.17,0-.27h0c.12-.17.43-.31.14-.57s-.36-.13-.42.15h0c-.28-.39-.26-.67.12-.82a.21.21,0,0,0,.09-.36c-.65-.15-.42-.71-.43-1.07a1.32,1.32,0,0,0-.63-1.16c-.78-.47-1.28-1.27-2.26-1.58a13.57,13.57,0,0,1-1.6-.77,5.55,5.55,0,0,0-1.88-.66,62.18,62.18,0,0,0-9,0c-.25,0-.58,0-.6.25-.08.68-.56.82-1.07.91s-.57.3-.63.74a14.46,14.46,0,0,0,0,3.6c.17,1.69-.2,3.37-.08,5.07a72.91,72.91,0,0,1,.37,9.23c-.07,1.42-.08,2.83-.13,4.24s0,2.8,0,4.2a75.57,75.57,0,0,0,.37,9.63,8.68,8.68,0,0,0,.77,2.63c.13.28.28.23.53.22.42,0,.61-.39,1-.44a6.65,6.65,0,0,0,2.86-1.23c.16-.1.27-.23.48-.22.64,0,.47-.66.4-.74a.84.84,0,0,1,0-1.17c-.16-.21-.43,0-.61-.29.68-.22.66-.81.47-1.29a3.74,3.74,0,0,1-.24-1.51,9.62,9.62,0,0,0,0-2.08c-.11-.59.65-1.24-.12-1.76,0,0,.06-.17.07-.26s.07-.29,0-.32c-.67-.47-.05-.82.06-1.26a12,12,0,0,1,3,4.72,14,14,0,0,0,1.54,3.63,12,12,0,0,0,1.3,1.55,9.86,9.86,0,0,0,1.89,1.57,5.09,5.09,0,0,0,2.86.48,1.64,1.64,0,0,0,1.38-.65,6.84,6.84,0,0,0,1-1.87c.44-1,.94-2,1.47-3.09Zm-2.61-18c.15,0,.14.13.14.21a.55.55,0,0,1-.08.15.92.92,0,0,1-.13-.21S132.06,96.29,132.08,96.24ZM119.66,114.1l-.09,0-.06-.53h.15Zm.6-16c.48-.33.24-.7.2-1.1-.21-2.11-.73-4.19-.43-6.34a18.63,18.63,0,0,0-.27-4.08,3.51,3.51,0,0,1-.05-.55c0-.5.15-.84.82-.78,1.17.09,2.36,0,3.54.11a4.86,4.86,0,0,1,3.35,1.72,5.63,5.63,0,0,1,1,2.77,22.17,22.17,0,0,1,.64,4.74,1,1,0,0,1-.35.8,8.4,8.4,0,0,1-4.51,2C122.89,97.67,121.58,97.79,120.26,98.14ZM129,114c.46-.2.5.14.67.29C129.34,114.36,129.21,114.16,129,114Zm2.2.36c-.08,0-.21,0-.23-.09a.12.12,0,0,1,.15-.15,2.3,2.3,0,0,1,.27.16C131.26,114.34,131.2,114.39,131.16,114.38Z"/><path class="cls-16" d="M199.83,102.49a4.41,4.41,0,0,0,.34-1.6c0-.46-.28-.87-.2-1.27.32-1.51-.07-3,0-4.53a22.26,22.26,0,0,0-.26-2.43c0-.76-.57-1.41-.49-2.21,0-.21.16-.37.06-.64-.42-1.12-.7-2.31-1.17-3.41a10.85,10.85,0,0,0-3.93-5.23,3.05,3.05,0,0,0-2.23-.5c-.88.15-1.78.28-2.66.4a5.71,5.71,0,0,0-3.57,1.85A20,20,0,0,0,181,90.7a30.21,30.21,0,0,0-1.24,8.39,66.27,66.27,0,0,0,.78,11,17.41,17.41,0,0,0,1.83,6.37,4.87,4.87,0,0,0,1.85,2,17.84,17.84,0,0,0,3.66,1.13,4.66,4.66,0,0,0,2.26.33,5.07,5.07,0,0,0,2.43-.36,3.07,3.07,0,0,0,2.15-1.42.45.45,0,0,1,.18-.21c1-.61,1.23-1.78,1.8-2.69a9.37,9.37,0,0,0,1-2.48c.1-.34.55-.21.53-.62a11.28,11.28,0,0,1,.67-3,9.56,9.56,0,0,0,.45-1.88c0-.77-.21-1.66.48-2.34.12-.12,0-.35,0-.53C199.86,103.76,199.55,103.1,199.83,102.49Zm-5.34,3.83a38.5,38.5,0,0,0-.3,4.3,1.08,1.08,0,0,1-.31.81c-.35.39-.71.79-1,1.22a3.88,3.88,0,0,1-3,1.38c-1.56.15-1.55.06-2.13-1.38a6.9,6.9,0,0,1-.61-2.68,20.55,20.55,0,0,0-.44-3.85c-.24-1.38-.2-2.77-.51-4.13a10.86,10.86,0,0,1,0-2.35,44.58,44.58,0,0,1,1.27-9.41,6.94,6.94,0,0,1,1-2.54,17.41,17.41,0,0,0,1.13-2.14.69.69,0,0,1,1.17-.18,9.61,9.61,0,0,1,2.35,3.8,46.17,46.17,0,0,1,1.76,10.43A44.29,44.29,0,0,1,194.49,106.32Z"/><path class="cls-16" d="M155.42,102.52a4,4,0,0,0,.36-1.67c0-.46-.29-.84-.2-1.27a23.32,23.32,0,0,0,0-4.87,8,8,0,0,0-.53-3.15,1.47,1.47,0,0,1-.15-.87,3.17,3.17,0,0,0-.27-1.69,17.62,17.62,0,0,0-2.31-5.32c-.24-.31-.58-.5-.76-.85a4.15,4.15,0,0,0-4.07-2.15c-.86.11-1.73.28-2.58.4a5.57,5.57,0,0,0-3.47,1.76,18.38,18.38,0,0,0-4.82,8,21.31,21.31,0,0,0-.9,3.13,30,30,0,0,0-.3,6,55.4,55.4,0,0,0,.86,10.76,16.07,16.07,0,0,0,1.66,5.62,6.29,6.29,0,0,0,1.91,2.16,10,10,0,0,0,2.49.76,8.26,8.26,0,0,0,5.75.34c.8-.28,1.7-.43,2.13-1.32a.84.84,0,0,1,.27-.32c1-.67,1.31-1.84,1.87-2.81a11,11,0,0,0,1-2.42c.1-.33.55-.19.52-.62a11.22,11.22,0,0,1,.66-3,9.26,9.26,0,0,0,.46-2c0-.77-.2-1.66.49-2.33.11-.11,0-.37,0-.52C155.53,103.74,155.12,103.11,155.42,102.52Zm-5.32,3.84a33,33,0,0,0-.3,4.22,1.08,1.08,0,0,1-.33.87,8.35,8.35,0,0,0-.67.8c-1.14,1.62-2.81,1.86-4.6,1.82-.31,0-.36-.2-.46-.42a10.85,10.85,0,0,1-1.08-4.54,14.43,14.43,0,0,0-.34-3,32.41,32.41,0,0,1-.21-10.49A29.37,29.37,0,0,1,143.49,89a33.63,33.63,0,0,1,1.91-3.6c.2-.39.71-.3,1,0a9.93,9.93,0,0,1,2.36,3.71,37.87,37.87,0,0,1,1.39,6.64c.28,1.65.31,3.32.45,5.29C150.46,102.58,150.28,104.47,150.1,106.36Z"/><path class="cls-16" d="M128.76,155.49c-.74-1.05-.77-2.31-1.18-3.44-.25-.68-.46-1.45-.65-2.17a4.45,4.45,0,0,0-1.12-2.56.65.65,0,0,1,0-.76.35.35,0,0,0,.06-.39c-.8-1.35-1-2.94-1.72-4.32a1.14,1.14,0,0,0-1.34-.73c-1,.15-1.28.37-1.58,1.49-.76,2.81-1.48,5.63-2.26,8.44a17.5,17.5,0,0,0-.93,6.13,2.24,2.24,0,0,0,.66,1.53c.19.18.52.23.63.56a1.69,1.69,0,0,1,.21-.23,4,4,0,0,0,2.09-3.14,1.07,1.07,0,0,1,.49-.81,3.4,3.4,0,0,1,1.34-.26,2.63,2.63,0,0,0,1-.21c.57-.45.53.12.57.31a12.4,12.4,0,0,0,1.1,3,.69.69,0,0,0,1.23,0,8.83,8.83,0,0,1,.83-1.06C128.53,156.48,129.07,155.94,128.76,155.49Zm-5.42-3.61c-.58.21-.75,0-.65-.61s.37-1.21.49-1.88a19.43,19.43,0,0,1,.78,2.09C124.1,152,123.58,151.79,123.34,151.88Z"/></g></g></svg>