<?xml version="1.0" encoding="UTF-8"?>
<svg width="16px" height="15px" viewBox="0 0 16 15" version="1.1" xmlns="http://www.w3.org/2000/svg" xmlns:xlink="http://www.w3.org/1999/xlink">
    <!-- Generator: Sketch 56.3 (81716) - https://sketch.com -->
    <title>Group</title>
    <desc>Created with Sketch.</desc>
    <g id="Page-1" stroke="none" stroke-width="1" fill="none" fill-rule="evenodd">
        <g id="Not-Connected" transform="translate(-1333.000000, -17.000000)" fill="#FFFFFF" fill-rule="nonzero">
            <g id="Group" transform="translate(1333.000000, 17.000000)">
                <path d="M9.69076494,6.00689005 C9.5026038,5.83128177 9.29397013,5.6756172 9.0687413,5.54274545 C8.47218424,5.18833445 7.77866185,5 7.07028136,5 C6.0870727,4.99830799 5.14381648,5.36074828 4.44979778,6.00689005 L1.08287342,9.13310304 C0.390033444,9.77714395 0.000621146866,10.6497461 0,11.5596745 C-0.00130203,13.4585001 1.65672458,14.9987706 3.703357,15 C4.68504574,15.003145 5.62743342,14.6424314 6.32120397,13.9980164 L9.10050474,11.4194353 C9.15100364,11.3729863 9.1791999,11.3096154 9.17879665,11.2436544 C9.17795914,11.1080199 9.05875319,10.998718 8.91256073,10.999495 L8.80669294,10.999495 C8.2260176,11.0013944 7.65052243,10.8979346 7.11265329,10.6949864 C7.01354764,10.6571423 6.89964594,10.6784962 6.82414574,10.7490042 L4.8256858,12.6055826 C4.20512005,13.1813314 3.19898836,13.1813314 2.57842261,12.6055826 C1.95785686,12.0298338 1.95785686,11.0963644 2.57842261,10.5206156 L5.95859207,7.38703528 C6.57866152,6.8124664 7.58314921,6.8124664 8.20321865,7.38703528 C8.62110637,7.75192177 9.27293926,7.75192177 9.69079596,7.38703528 C9.87058198,7.22008942 9.97958268,6.99866528 9.99785286,6.76325464 C10.0171777,6.48194181 9.90535426,6.20644229 9.69076494,6.00689005 Z" id="Path"></path>
                <path d="M14.9151394,1.0070356 C13.468643,-0.335678534 11.1234073,-0.335678534 9.676911,1.0070356 L6.90169786,3.58065976 C6.82549305,3.65174242 6.80351208,3.75865421 6.84614089,3.85080267 C6.88827366,3.94321013 6.98673846,4.00252243 7.09481413,4.00059427 L7.19268988,4.00059427 C7.77237971,3.99961581 8.34664406,4.10387998 8.88320903,4.30757354 C8.98226289,4.34541715 9.09610507,4.32406357 9.17156582,4.25355647 L11.1636799,2.40681732 C11.7839214,1.83107651 12.7895273,1.83107651 13.4097688,2.40681732 C14.0300102,2.98255813 14.0300102,3.91601454 13.4097688,4.49175535 L10.9282139,6.79279043 L10.907039,6.81489225 L10.0393024,7.61547875 C9.41955699,8.19003965 8.41559422,8.19003965 7.79584881,7.61547875 C7.37817946,7.25059733 6.72668721,7.25059733 6.30904887,7.61547875 C6.1282097,7.78368854 6.01917295,8.00703776 6.00215243,8.24414305 C5.9828067,8.52545198 6.09457169,8.80094767 6.30904887,9.00052593 C6.61526325,9.28597894 6.97353128,9.51876748 7.36726649,9.6881284 C7.42282346,9.71267638 7.47838042,9.73233204 7.53393739,9.75443385 C7.58949436,9.77653567 7.64768656,9.79371638 7.70324353,9.81337203 C7.7588005,9.83302768 7.8169927,9.85020839 7.87254967,9.86494294 L8.02864862,9.90422546 C8.13446109,9.92877344 8.24030455,9.94842909 8.34875225,9.9656098 C8.47939793,9.98362509 8.61097369,9.99510767 8.74295249,10 L8.92813205,10 L8.94400547,10 L9.10273966,9.98281929 C9.16093187,9.98037313 9.22179031,9.96808475 9.29058546,9.96808475 L9.3805245,9.96808475 L9.56306882,9.94353677 L9.64773739,9.92880222 L9.80117011,9.89933313 L9.83028172,9.89933313 C10.4801308,9.74781482 11.0735239,9.43548277 11.5472462,8.99560482 L14.9150464,5.86943525 C16.3616357,4.52672111 16.3616357,2.34974974 14.9151394,1.0070356 Z" id="Path"></path>
            </g>
        </g>
    </g>
</svg>