<?xml version="1.0" encoding="UTF-8"?>
<svg width="22px" height="15px" viewBox="0 0 22 15" version="1.1" xmlns="http://www.w3.org/2000/svg" xmlns:xlink="http://www.w3.org/1999/xlink">
    <!-- Generator: Sketch 56.3 (81716) - https://sketch.com -->
    <title>open-book</title>
    <desc>Created with Sketch.</desc>
    <g id="Page-1" stroke="none" stroke-width="1" fill="none" fill-rule="evenodd">
        <g id="Connected" transform="translate(-961.000000, -17.000000)" fill="#FFFFFF" fill-rule="nonzero">
            <g id="Group-9" transform="translate(956.000000, 8.000000)">
                <g id="open-book" transform="translate(5.000000, 9.000000)">
                    <g id="Group-8">
                        <path d="M3.89421407,0 C3.89370785,0 3.89313834,0 3.89263212,0 C3.71488391,0 3.54770316,0.0665057427 3.42146333,0.18737006 C3.29383139,0.309570566 3.22352941,0.472281877 3.22352941,0.645500487 L3.22352941,10.3246673 C3.22352941,10.6796076 3.52555582,10.9690746 3.89687175,10.9699856 C5.46224557,10.973569 8.08487,11.286723 9.89411765,13.104 L9.89411765,2.97447693 C9.89411765,2.85415924 9.86209892,2.74112984 9.80166833,2.64759665 C8.31672099,0.352267861 5.46313146,0.00352267861 3.89421407,0 Z" id="Path"></path>
                        <path d="M18.6764706,10.3247281 L18.6764706,0.645500487 C18.6764706,0.472281877 18.6061679,0.309570566 18.4785348,0.18737006 C18.3522938,0.0665057427 18.1849849,-1.77635684e-15 18.0074248,-1.77635684e-15 C18.0068553,-1.77635684e-15 18.0062858,-1.77635684e-15 18.0057796,-1.77635684e-15 C16.4369106,0.00358341444 13.583294,0.352328596 12.0982693,2.64765739 C12.0378381,2.74119058 12.0058824,2.85421997 12.0058824,2.97453767 L12.0058824,13.104 C13.8151472,11.286723 16.4377965,10.973569 18.0031851,10.9699856 C18.3744413,10.9690746 18.6764706,10.6796076 18.6764706,10.3247281 Z" id="Path"></path>
                        <path d="M21.2411627,3.184 L20.7633723,3.184 L20.7633723,11.2183598 C20.7633723,12.118088 20.0096094,12.8517515 19.0830458,12.8539826 C17.7820498,12.8569976 15.6368914,13.1044062 14.1176471,14.5028109 C16.745184,13.8771438 19.5150784,14.2838636 21.093659,14.633721 C21.2907646,14.6773778 21.4944424,14.6322738 21.6523625,14.5098659 C21.8097245,14.3877595 21.9,14.2052331 21.9,14.0093202 L21.9,3.82474202 C21.9,3.47144751 21.6044346,3.184 21.2411627,3.184 Z" id="Path"></path>
                        <path d="M1.13663672,11.2184569 L1.13663672,3.184 L0.658842557,3.184 C0.295629711,3.184 0,3.47145098 0,3.82474976 L0,14.00927 C0,14.2052456 0.090276187,14.387714 0.247639485,14.5098219 C0.405436804,14.6321709 0.608930242,14.6774564 0.806347398,14.6336784 C2.38494061,14.2837565 5.15491908,13.877092 7.78235294,14.5027667 C6.26315848,13.1044055 4.11798299,12.8570541 2.81697665,12.8540391 C1.89046768,12.8518683 1.13663672,12.1181959 1.13663672,11.2184569 Z" id="Path"></path>
                    </g>
                </g>
            </g>
        </g>
    </g>
</svg>