<?xml version="1.0" encoding="UTF-8"?>
<svg width="148px" height="28px" viewBox="0 0 148 28" version="1.1" xmlns="http://www.w3.org/2000/svg" xmlns:xlink="http://www.w3.org/1999/xlink">
    <!-- Generator: Sketch 56.3 (81716) - https://sketch.com -->
    <title>Group 5</title>
    <desc>Created with Sketch.</desc>
    <g id="Page-1" stroke="none" stroke-width="1" fill="none" fill-rule="evenodd">
        <g id="Desktop-HD-Copy" transform="translate(-65.000000, -11.000000)" fill="#FFFFFF">
            <g id="Group-5" transform="translate(65.000000, 11.000000)">
                <path d="M127.440742,19.2035586 C127.720313,19.5249248 127.720313,19.5249248 127.8054,20.2839195 C127.371125,19.9833927 127.433007,19.6049922 127.440742,19.2035586 M127.170011,18.8130931 C126.966686,18.7363162 127.115865,18.9820023 126.981051,18.9973577 C126.907015,18.7396066 126.832978,18.4972109 126.765571,18.2548152 C126.735736,18.1462307 126.71474,18.021194 126.845133,17.9652565 C126.970001,17.9126095 126.994312,18.0475175 127.047353,18.1133263 C127.166696,18.2613961 127.279408,18.4127563 127.387701,18.5674069 C127.467263,18.6814755 127.481628,18.8273517 127.395436,18.9216776 C127.244047,19.0861996 127.250678,18.842707 127.170011,18.8130931 M126.442904,16.6249509 C126.346767,16.6216604 126.251735,16.665533 126.27936,16.4779779 C126.297041,16.3913297 126.284885,16.2421631 126.448429,16.2169364 C126.588767,16.1971937 126.589872,16.3134559 126.583242,16.4055882 C126.575507,16.4966237 126.642914,16.6370158 126.442904,16.6249509 M126.024099,15.0290877 C125.981003,14.8886957 125.897021,14.7932729 126.000894,14.6978502 C126.022994,14.6770107 126.105871,14.681398 126.123552,14.7022374 C126.207534,14.8130155 126.116922,14.8908893 126.024099,15.0290877 M125.713587,13.6394255 C125.639551,13.6547809 125.603085,13.5999402 125.611925,13.5341314 C125.61524,13.5034207 125.657231,13.4551609 125.684857,13.4529672 C125.712482,13.4507736 125.744528,13.495743 125.779889,13.5253569 C125.753368,13.5736167 125.739003,13.6350382 125.713587,13.6394255 M122.859306,20.1018485 C122.767589,20.1720446 122.675872,20.140237 122.613991,20.057976 C122.537744,19.9570692 122.654877,19.9384234 122.703498,19.893454 C122.790795,19.8155803 122.879197,19.7399002 122.975334,19.6565424 C123.166504,19.8671305 123.010695,19.9866832 122.859306,20.1018485 M121.591842,17.3663966 C120.989603,17.4618193 120.382944,17.5353058 119.778495,17.6142763 C119.688988,17.6263413 119.579591,17.6735042 119.527655,17.5594357 C119.504449,17.5089823 119.509974,17.4058818 119.543125,17.3806551 C120.042597,17.0044482 119.713299,16.4253309 119.894523,15.9657662 C119.963035,15.7913729 119.934304,15.5544612 120.006131,15.3625189 C120.321063,14.5300378 120.339848,13.6295542 120.6371,12.679714 C120.877996,13.2281206 121.137677,13.6723299 121.26807,14.152734 C121.48134,14.9325682 121.864784,15.6433031 122.13662,16.3968137 C122.36978,17.0395462 122.258173,17.2611025 121.591842,17.3663966 M122.052638,20.1544956 C121.997387,20.1566892 121.90788,20.1654637 121.92556,20.0777186 C121.937715,20.0075226 121.984126,19.9120999 122.037168,19.8923572 C122.13441,19.8561624 122.126675,19.9855863 122.176401,20.0283621 C122.221707,20.1588828 122.12336,20.1512051 122.052638,20.1544956 M128.713731,22.024562 C128.597704,21.8786858 128.566763,21.5628036 128.23857,21.7317129 C128.21868,21.7415842 128.147958,21.6527423 128.101547,21.6099666 C128.030826,21.4465415 128.108177,21.2567928 128.084972,21.1120134 C128.065081,21.0648505 128.050716,21.0220748 128.031931,20.9990417 C128.062871,21.0308493 128.077237,21.0703345 128.084972,21.1120134 C128.110387,21.1756286 128.147958,21.2447278 128.224205,21.2896972 C128.491621,21.1844031 128.354598,20.9924608 128.294927,20.8520687 C128.038561,20.2499183 127.949054,19.6027986 127.802085,18.9765182 C127.723629,18.6397966 127.860652,18.2745578 127.391016,18.1144231 C127.227472,18.0584856 127.276093,17.8062186 127.319189,17.674601 C127.544614,16.9858024 126.655069,16.5372058 126.9258,15.8440199 C126.929115,15.837439 126.804247,15.8012442 126.773307,15.7562749 C126.510311,15.3515508 126.143442,14.9632789 126.48158,14.4291309 C126.541251,14.3369986 126.491525,14.3205464 126.440694,14.252544 C126.150072,13.8807244 125.994264,13.4595481 126.036255,12.979144 C126.045095,12.8606881 126.034045,12.7488132 125.864976,12.7553941 C125.730163,12.761975 125.706957,12.8541073 125.721322,12.9539173 C125.750053,13.1403755 125.661651,13.2544441 125.513578,13.3432859 C125.426281,13.395933 125.40639,13.3147688 125.378765,13.2687026 C125.278207,13.1063743 125.294783,12.9275937 125.351139,12.7630718 C125.37987,12.6830044 125.476007,12.6160988 125.553359,12.5634518 C125.751158,12.432931 125.785414,12.3342178 125.59977,12.1291138 C125.385395,11.8900085 125.215221,11.5927722 125.300308,11.2363079 C125.322408,11.1408851 125.514683,11.0684955 125.3865,10.9642982 C125.287047,10.883134 125.147814,10.7997762 124.985375,10.8622946 C124.857192,10.9105544 124.7489,11.030107 124.627347,11.0015899 C124.588671,10.5113144 124.577621,10.0342007 124.501374,9.56695827 C124.467119,9.35527333 124.447228,9.21597806 124.625137,9.06352104 C124.784261,8.92970983 124.976535,8.74215478 124.558836,8.67305556 C124.481484,8.66099061 124.443913,8.56447105 124.458278,8.47782282 C124.503584,8.19045777 124.312415,7.96561108 124.257164,7.71663449 C124.164342,7.29765187 123.840569,6.99273782 123.826204,6.52110816 C123.808523,5.97050796 123.420659,5.47036117 123.397454,4.89672789 C123.387509,4.66310669 123.083627,4.7387868 123.060421,4.49090703 C123.006275,3.88985343 122.767589,3.33815641 122.488018,2.80839566 C122.271433,2.39928436 122.029432,2.00552844 121.884674,1.55912549 C121.778592,1.22679111 121.565322,1.03046156 121.146517,1.00633167 C120.559748,0.972330458 119.98403,1.08859265 119.399472,1.04142969 C119.12432,1.01949342 118.858009,1.16866001 118.719881,1.42312066 C118.430364,1.95288141 118.115432,2.46509315 117.954098,3.06504994 C116.659009,7.90747998 115.341818,12.7433291 114.043413,17.5846624 C113.737321,18.725348 113.296416,19.8440974 113.178178,21.0176875 C113.029,22.493998 112.966014,23.979083 113.01795,25.4707489 C113.04005,26.0959324 113.46659,26.5072373 113.606928,27.0567407 C113.635659,27.166422 113.855559,27.336428 113.930701,27.5250799 C113.952801,27.5799206 114.038993,27.6588911 114.067724,27.5886951 C114.172701,27.3430089 114.420227,27.5404353 114.54399,27.3846878 C114.590401,27.5821142 114.489844,27.7817342 114.688748,28 C114.735159,27.6742465 114.98821,27.6150186 115.157279,27.4669488 C115.248996,27.6029536 115.123023,27.7850246 115.288777,27.9539338 C115.40812,27.747733 115.681061,27.7082477 115.748468,27.4515934 C115.793774,27.3879783 115.799299,27.2563607 115.933007,27.3397185 C115.956212,27.4088177 116.037984,27.4691424 116.073345,27.436238 C116.735255,26.8329908 117.213731,26.0761897 117.58944,25.2952588 C117.745249,24.9716989 117.776189,24.548329 118.00714,24.2170915 C118.057971,24.143605 118.118747,24.0525695 118.117642,23.9714053 C118.115432,23.7509459 118.293341,22.8373005 118.320967,22.6826499 C118.389478,22.2899908 118.834804,22.3272824 119.007188,22.0410142 C119.105535,21.877589 119.206092,21.4772522 119.576276,21.7997153 C119.656943,21.8710081 119.673518,21.7295192 119.707774,21.6648073 C119.760815,21.5682877 119.806121,21.555126 119.912204,21.6582264 C120.189565,21.9313329 120.522178,21.877589 120.726607,21.5584164 C120.915567,21.2655673 121.211714,21.2545992 121.369732,21.5507387 C121.441559,21.6845499 121.504545,21.6944212 121.630518,21.6417742 C121.851523,21.5485451 122.079158,21.4706713 122.304584,21.3862167 C122.34768,21.2249852 122.215077,21.2337597 122.118939,21.2019521 C122.107889,21.1953712 122.087999,21.2151139 122.089104,21.1920808 C122.089104,21.1898872 122.115624,21.1898872 122.131095,21.190984 C122.174191,21.1920808 122.216182,21.2030489 122.258173,21.2205979 C122.34105,21.2765354 122.428347,21.3280856 122.503488,21.3938944 C122.812895,21.4520255 122.840521,21.3247952 122.706813,21.0922708 C122.579735,20.8707146 122.755434,20.7248384 122.896877,20.7533555 C123.109042,20.7994217 123.342203,20.8498751 123.503536,21.0725282 C123.799683,21.478349 123.754377,21.9828831 123.920131,22.3908976 C124.464908,23.7191383 124.786471,25.1384145 125.543413,26.3745229 C125.63734,26.5280768 125.589824,27.1225495 126.084876,26.7101477 C126.426329,27.0029969 126.461689,26.7046637 126.506995,26.4381381 C126.781042,26.8549271 127.006467,26.8801538 127.113654,26.4984628 C127.35455,25.62869 128.113703,25.1724157 128.616489,24.5176183 C129.044134,23.9593404 129.165687,22.5806462 128.713731,22.024562" id="Fill-36"></path>
                <path d="M146.824009,14.3647345 C146.584456,14.3422077 146.743432,14.0793946 146.663944,13.9678332 C146.626922,13.792982 146.71621,13.6771297 146.844698,13.6867841 C147.031985,13.7007293 147.059207,13.9013254 147.082074,14.0386318 C147.113651,14.2091921 146.955764,14.377607 146.824009,14.3647345 M146.683544,19.0395892 C146.661766,19.0889337 146.466857,19.2723665 146.402613,19.007408 C146.435279,18.8937011 146.484279,18.7885759 146.574656,18.7091956 C146.837076,18.7435222 146.733632,18.9301731 146.683544,19.0395892 M146.484279,20.7494832 C146.350346,20.6969206 146.420035,20.490961 146.234925,20.4845248 C146.193548,20.6400672 146.151081,20.797755 146.078126,21.0670044 C145.962705,20.6550851 145.992105,20.348291 146.026949,20.0393516 C145.967061,19.8194468 145.906083,19.6006147 145.846195,19.3817825 C145.682863,19.1018062 145.799373,18.8025211 145.825506,18.5268355 C145.881039,17.9507922 145.664352,17.3951302 145.739485,16.8233777 C145.762351,16.6560355 145.72424,16.4736754 145.968149,16.4071676 C146.014971,17.0615185 146.05526,17.7051424 146.115148,18.3476935 C146.124948,18.4710548 146.00626,18.6920323 146.291547,18.6898869 C146.271947,18.3230213 146.498434,17.9786825 146.246903,17.5753449 C146.110793,17.3575855 146.176126,16.9692658 146.310058,16.6667626 C146.357969,16.5605646 146.523478,16.435058 146.207703,16.3524596 C146.033482,16.3074059 146.234925,15.9727215 146.231658,15.7656891 C146.229481,15.6959632 146.296991,15.6080013 146.391724,15.6423279 C146.582278,15.7109811 146.618211,15.8675963 146.625833,16.0553199 C146.647611,16.5391105 146.694433,17.0207557 146.724921,17.5034736 C146.752143,17.9261199 146.732543,18.3434027 146.504967,18.7220681 C146.46359,18.8057392 146.408057,18.8583018 146.31768,18.8293387 C146.318769,18.8379204 146.320947,18.846502 146.322035,18.8561564 C146.345991,18.8701016 146.355791,18.8872649 146.350346,18.9055009 C146.345991,18.9258823 146.339458,18.9355367 146.331835,18.9355367 C146.227303,19.1157513 146.123859,19.295966 146.020416,19.475108 C146.452701,19.5898876 146.070504,19.851628 146.123859,20.0339881 C146.384102,20.1058594 146.498434,19.8655731 146.690077,19.7325575 C146.790254,20.140186 146.622566,20.4394711 146.484279,20.7494832 M146.147815,21.4789236 C146.133659,21.4939415 146.041104,21.4681966 146.026949,21.4403062 C145.953994,21.3105087 146.066149,21.2536553 146.167414,21.1603298 C146.254525,21.2987089 146.227303,21.3984706 146.147815,21.4789236 M145.64693,15.9351768 C145.64693,15.2540082 145.645841,14.6382747 145.64693,14.0214685 C145.64693,13.9292157 145.62733,13.8101453 145.759084,13.8047818 C145.915883,13.7972728 145.908261,13.9270703 145.922416,14.0364864 C145.943105,14.2156283 145.920239,14.4076428 146.060704,14.6136024 C146.129304,14.4258788 146.18157,14.2832088 146.251258,14.0901217 C146.379746,14.4376786 146.707499,14.7004917 146.388457,15.0587756 C146.336191,15.0834479 146.295902,15.0619937 146.255614,15.0373215 C146.26868,15.0094311 146.281747,14.9793953 146.294813,14.9504323 C146.300258,14.863543 146.324213,14.7380364 146.184837,14.7659267 C145.952905,14.8141985 145.998638,15.0523394 145.934394,15.2057364 C145.863617,15.375224 146.008438,15.3580607 146.118415,15.3462609 C146.130393,15.3162251 146.145637,15.284044 146.158703,15.2540082 C146.184837,15.2808258 146.205525,15.3140797 146.221858,15.3473336 C146.172859,15.6476914 145.939839,15.7656891 145.64693,15.9351768 M145.83095,12.7202756 C145.891928,12.6880944 145.951816,12.6537678 146.011705,12.6215866 C146.047638,12.6462588 146.081393,12.6730765 146.117326,12.6988214 C146.124948,12.6258774 146.093371,12.5861873 146.020416,12.579751 C146.023682,12.5647331 146.028038,12.5497152 146.030216,12.5336247 C146.145637,12.5025162 146.175037,12.3308831 146.400435,12.3523373 C146.216414,12.4435173 146.683544,12.8683091 146.117326,12.6988214 C145.916972,12.8382733 145.918061,13.0989409 145.772151,13.2845192 C145.540219,13.0538873 145.682863,12.8865451 145.83095,12.7202756 M145.820062,10.7733134 C145.85055,10.8237306 145.89955,10.8666388 145.894106,10.89882 C145.85055,11.0972707 146.01606,11.3332661 145.788484,11.4941721 C145.762351,11.5124081 145.701374,11.4812996 145.65673,11.4748634 C145.820062,11.2721219 145.536953,10.9674733 145.820062,10.7733134 M145.887572,8.86711405 C146.017149,8.87891382 145.992105,8.99476612 145.995371,9.08380075 C145.984483,9.18248974 146.033482,9.32837782 145.873417,9.33266864 C145.70464,9.33695947 145.751462,9.18785328 145.750373,9.0923824 C145.750373,8.99476612 145.711174,8.85102345 145.887572,8.86711405 M145.752551,12.4950072 C145.787395,12.2397031 145.467264,11.9468542 145.852728,11.699059 C145.979038,11.9661629 145.846195,12.1989402 145.826595,12.4349357 C145.80264,12.4553171 145.777595,12.4746258 145.752551,12.4950072 M146.350346,11.4394641 L146.213147,10.9588916 C146.254525,10.9460191 146.294813,10.9342194 146.336191,10.9202742 C146.442901,11.0704531 146.449434,11.2410134 146.350346,11.4394641 M146.428746,9.31765075 C146.594256,9.73171544 146.308969,10.1071627 146.428746,10.4858281 C146.438546,10.5169366 146.365591,10.5877352 146.31768,10.6199164 C146.25888,10.6606792 146.187014,10.6392251 146.159792,10.5770081 C146.046549,10.3195586 146.208792,10.007401 145.980127,9.75316957 C145.946372,9.71777026 146.226214,9.44530282 146.428746,9.31765075 M146.399346,6.89655233 C146.519123,6.81717205 146.49299,6.95769659 146.498434,7.01669545 C146.501701,7.05960371 146.478834,7.10358467 146.464679,7.15614729 C146.352524,7.08105783 146.283925,6.97271448 146.399346,6.89655233 M146.504967,5.49881584 C146.5801,5.50417937 146.621478,5.54708763 146.6095,5.61788626 C146.598611,5.67903052 146.565945,5.73695667 146.484279,5.72622961 C146.410235,5.71764795 146.385191,5.66401263 146.375391,5.59857754 C146.387368,5.52670621 146.430924,5.49345231 146.504967,5.49881584 M146.907853,10.4461379 C147.15394,10.646734 147.064652,10.8709297 147.025452,11.0822528 C146.910031,10.89882 146.857765,10.7014421 146.907853,10.4461379 M142.221312,15.7217082 C142.06778,15.7206355 141.975225,15.6584185 141.956714,15.5404208 C141.939292,15.4342229 142.032936,15.3623515 142.124402,15.3505518 C142.265956,15.3333884 142.298623,15.4535316 142.314956,15.5629476 C142.328023,15.6487641 142.295356,15.7131265 142.221312,15.7217082 M140.082751,11.3847561 C139.97713,11.3150301 139.891109,11.2281409 139.971686,11.0843983 C140.10344,11.1208703 140.186195,11.1991778 140.186195,11.3354116 C140.186195,11.3525749 140.100174,11.3954831 140.082751,11.3847561 M147.713624,23.5696285 C147.833401,23.1716544 147.556826,23.2724888 147.355383,23.2392349 C147.103852,23.1973993 146.98843,23.1308915 147.02763,22.7844074 C147.11474,21.9755867 147.254117,21.1517482 147.028719,20.3386367 C146.95903,20.0886961 146.931808,19.8548461 147.049408,19.610269 C147.094052,19.5201617 147.139785,19.4182546 147.094052,19.2970387 C146.820743,18.5858344 147.035252,17.8445942 146.972097,17.1194447 C146.965564,17.0507915 146.945964,16.9542479 147.059207,16.9360119 C147.167007,16.9188486 147.195317,16.9960834 147.19314,17.0776091 C147.182251,17.3168227 147.340139,17.4948919 147.415271,17.7995405 C147.594937,16.7043073 147.336872,15.7141992 147.316183,14.7187277 C147.304205,14.1190848 146.947053,13.5162237 147.458826,12.9584164 C147.468626,12.9476893 147.419627,12.8929813 147.412005,12.8565093 C147.268272,12.112051 147.214917,11.3654473 147.490404,10.6435159 C147.679869,10.1500709 147.373894,9.60084525 147.706002,9.13529066 C147.391316,8.43159524 147.647203,7.69035509 147.567715,6.97164178 C147.550292,6.8257537 147.573159,6.73779177 147.769157,6.68093833 C148.010889,6.61013971 147.9804,6.07378649 147.733224,5.96437043 C147.635225,5.92146218 147.57207,5.89786264 147.565537,5.78630117 C147.513271,4.98606216 147.567715,4.18045963 147.613447,3.38880228 C147.64067,2.87926672 147.606914,2.41585754 147.389138,1.99857474 C147.269361,1.77116097 147.164829,1.36031441 146.662855,1.51049331 C146.15217,1.66067221 145.678507,1.42682221 145.264733,1.13826418 C144.952224,0.918359357 144.286918,0.959122202 144.155164,1.27235248 C144.016876,1.60167336 143.872055,1.92777611 143.821966,2.2924963 C143.388592,5.40334497 142.921462,8.51097551 142.820196,11.6582962 C142.796241,12.4220632 142.648153,13.1965572 142.733086,13.9474517 C142.79733,14.5106226 142.699331,15.0523394 142.808219,15.6691456 C142.591532,15.4910763 142.662309,15.30228 142.581732,15.1510284 C142.219135,14.4720052 141.884848,13.7790368 141.677961,13.0270696 C141.62025,12.8103829 141.821693,12.6408953 141.687761,12.452099 C141.547295,12.4091907 141.315364,12.9004903 141.282698,12.4306448 C141.264187,12.1420868 141.240231,11.9747446 141.023544,11.7366038 C140.689258,11.3697382 140.500881,10.8730751 140.505237,10.3420854 C140.506326,10.2562689 140.558592,10.0910721 140.374571,10.1071627 C140.324483,10.1114535 140.284194,10.2133606 140.18184,10.3453035 C140.326661,9.7252792 139.574244,9.37772231 139.74411,9.01407483 C139.990197,8.48844868 139.550289,8.21169042 139.469712,7.86198812 C139.377157,7.46401403 139.22798,7.06818536 139.271536,6.61979407 C138.739073,6.81395393 138.835984,6.25078305 138.569208,6.11025851 C138.372121,6.00727869 138.668296,5.83135484 138.68354,5.56639635 C138.386276,5.68010323 138.341632,5.52885162 138.242544,5.29392891 C138.124945,5.01287983 138.335099,4.56448853 137.85708,4.44649083 C137.848369,4.44434541 137.848369,4.39071009 137.853814,4.36281972 C137.938746,3.83933898 137.526061,3.525036 137.265818,3.19464242 C136.866199,2.68939768 136.454602,2.20453437 136.150805,1.63278184 C135.913429,1.18653597 135.383144,1.03313895 134.963925,1.28093413 C134.575195,1.51156602 134.195176,1.61561854 133.75309,1.45471258 C133.644202,1.41502244 133.49067,1.33135134 133.390493,1.43111303 C132.968008,1.85697749 132.442079,2.18737107 132.427923,2.91037521 C132.292902,9.69631613 132.124125,16.482257 132.002171,23.268198 C131.985838,24.1606897 132.040282,25.0789264 132.927719,25.7086051 C133.280516,25.957473 133.512448,26.165578 133.880489,25.8105122 C134.09391,25.6056253 134.420574,25.9059831 134.626372,25.6517517 C134.853948,25.9596184 134.958481,25.723623 135.092413,25.5584262 C135.159924,25.4726097 135.257923,25.4018111 135.370078,25.5208815 C135.472432,25.6292248 135.522521,25.5637897 135.567165,25.4618826 C135.781674,24.967365 136.207427,24.6122991 136.460047,24.1424537 C136.52538,24.0223106 136.647334,23.9161126 136.58309,23.7594975 C136.363136,23.2306532 136.506869,22.676064 136.468758,22.1343473 C136.462225,22.0442399 136.464402,21.8844067 136.503602,21.8715342 C136.919554,21.7288642 136.698512,21.4649784 136.656045,21.2246922 C136.604868,20.9339888 136.55369,20.6271947 136.687623,20.3547273 C136.793244,20.1369679 137.073086,19.9900071 136.600512,19.8194468 C136.166049,19.6628316 137.015376,19.475108 136.649512,19.241258 C136.637534,19.2326763 136.626645,19.2187312 136.613579,19.2112222 C136.504691,19.1318419 136.518846,19.0470981 136.555868,18.9258823 C136.626645,18.7027594 136.871644,18.4496006 136.478558,18.2554408 C136.432825,18.2318412 136.429558,17.9615192 136.494891,17.9068112 C136.829177,17.6268348 136.577646,17.2975139 136.604868,16.9960834 C136.620112,16.8426864 136.484002,16.7193252 136.501424,16.5487648 C136.577646,15.8193245 136.658223,15.0920295 136.627734,14.3550802 C136.621201,14.1952469 136.555868,14.0139595 136.702867,13.8541263 C136.734445,13.8959618 136.770378,13.9249249 136.784533,13.9635423 C137.772148,16.4844025 139.134337,18.8304114 140.285283,21.272964 C141.047499,22.891678 141.955626,24.3848854 143.311282,25.5873893 C143.403836,25.6699877 143.474614,25.7761856 143.549746,25.8748746 C143.60419,25.9467459 143.624879,26.0175446 143.760989,25.9853634 C144.052809,25.9188556 144.344629,26.0100356 144.658226,25.8341118 C144.970735,25.6571152 145.303932,25.5455537 145.51082,25.2280326 C145.585952,25.113253 145.708996,24.915875 145.779773,24.9276748 C146.227303,25.0016916 146.574656,24.5618819 147.029808,24.7142062 C147.150673,24.7560418 147.229073,24.6434076 147.283517,24.5436459 C147.461004,24.2229067 147.726691,23.980475 148,23.7734427 C147.954267,23.600737 147.676603,23.6951351 147.713624,23.5696285" id="Fill-38"></path>
                <path d="M135.4915,20.551 C135.5035,20.557 135.5135,20.562 135.5245,20.565 C135.5155,20.522 135.5085,20.479 135.5005,20.435 C135.4705,20.472 135.4675,20.51 135.4915,20.551" id="Fill-40"></path>
                <path d="M100.838302,24.1009961 C100.922014,24.2008242 101.036167,24.3236895 100.965501,24.4366817 C100.872005,24.5847782 100.983983,24.8941355 100.736109,24.8787774 C100.545854,24.8667102 100.527372,24.6308527 100.591515,24.4520398 C100.67414,24.2227644 100.37843,24.2995552 100.368645,24.1624288 C100.345815,23.8289372 99.7196057,23.9276683 99.8859425,23.4647293 C99.0944837,23.6665795 99.5445715,22.8767311 99.2608205,22.6650079 C99.0912222,22.5377545 99.2216824,22.4148892 99.3108303,22.2536285 C99.8468045,22.9008654 100.341466,23.5020277 100.838302,24.1009961 M100.623043,21.8927117 L100.623043,21.8927117 C100.617607,21.7939806 100.656745,21.7171898 100.778508,21.6151677 C100.778508,21.8378611 100.865482,22.019965 100.712191,22.1921958 C100.665443,22.3150611 100.619781,22.4390235 100.568685,22.5750529 C100.15556,22.3008 100.673053,22.1208901 100.623043,21.8927117 M101.602582,23.6797436 C101.404717,23.6457363 101.321005,23.4789905 101.147058,23.3506401 C101.490604,23.2749463 101.705863,23.2815284 101.602582,23.6797436 M101.297088,24.6045244 C101.462337,24.7570091 101.463424,24.8941355 101.484081,25.0542992 C101.136187,25.0115158 101.240555,24.8283148 101.297088,24.6045244 M108.384341,24.093317 C108.42674,24.2984582 108.324546,24.3796371 108.209307,24.4937263 C108.102764,24.276518 108.232137,24.1964361 108.384341,24.093317 M110.657611,8.5420799 C110.563027,8.53220679 110.521715,8.48393828 110.516279,8.38959528 C110.49671,8.00015614 110.667395,7.55147838 110.38147,7.24541213 C110.191215,7.03917394 110.253184,6.65960791 110.007484,6.60695135 C109.719384,6.5455187 109.728081,6.39961615 109.749825,6.20983313 C109.783527,5.93119217 109.693292,5.71617789 109.484556,5.53517097 C109.391059,5.45508912 109.288865,5.37171623 109.275819,5.22800771 C109.211676,4.56321865 108.78768,4.06846639 108.41152,3.59126633 C107.651589,2.6280901 106.67966,1.90954747 105.520738,1.49378006 C103.843237,0.889326639 102.177694,0.750006159 100.512152,1.58922007 C99.5467459,2.07519623 98.7889893,2.82884323 97.9355618,3.45852792 C97.6996461,3.63295277 97.5485297,3.86771326 97.3734955,4.09589169 C96.4200485,5.35416405 96.1439076,6.87901024 95.7666601,8.34900585 C95.5514007,9.18821976 95.6329383,10.1031275 95.4394223,10.9511175 C95.0763079,12.5384933 95.1600199,14.1554885 95.0176008,15.7560285 C94.9186685,16.8826595 95.2741726,18.0027083 95.1611071,19.1403094 C95.5687954,19.5988603 95.3633205,20.1506572 95.3981099,20.6673496 C95.4024586,20.7222002 95.4676887,20.7704687 95.4970422,20.8264163 C95.7286092,21.2597359 95.9308226,21.734742 95.9677863,22.204263 C96.00475,22.6902391 96.2406657,23.0270217 96.5124579,23.334185 C96.7766399,23.6303781 96.6146517,24.0790559 97.0016838,24.3324656 C97.3147884,24.5365097 97.6094111,24.8392849 97.6170213,25.2868657 C98.3932598,25.5830588 98.8237787,26.347676 99.5956685,26.7020107 C100.194698,26.9773606 100.791554,27.0420843 101.352533,26.9762636 C102.17552,26.8808236 102.978938,26.8731445 103.797576,26.9433533 C103.993266,26.9598085 104.288976,26.8797266 104.385734,26.6789735 C104.489015,26.4617652 104.540112,26.4650562 104.718408,26.5769514 C104.780376,26.6142498 105.116311,26.8939878 105.019553,26.4310488 C105.010856,26.3904594 105.093481,26.2829523 105.116311,26.2884373 C105.412021,26.3586461 105.617496,26.0832962 105.921904,26.1063334 C106.291541,26.1348557 106.725321,26.2719822 107.009072,25.8518267 C107.027554,25.8233044 107.10583,25.8057522 107.134097,25.8211104 C107.588533,26.072326 107.730952,25.595126 108.013616,25.4437384 C107.945125,25.2879627 107.670071,25.5402754 107.664635,25.2649255 C107.947299,24.9851875 108.225614,24.7021585 108.515888,24.4311966 C108.643087,24.3105253 108.721363,24.1755929 108.674615,24.0088471 C108.565898,23.6259901 108.743106,23.2365509 109.112744,23.1904764 C109.572616,23.1323348 109.362793,22.9436488 109.226897,22.7626419 C109.042078,22.5212993 109.297563,21.732548 109.392146,21.4933994 C109.543263,21.1116394 109.925946,21.3255566 110.092283,21.0831171 C109.942254,20.98658 109.446505,21.0030352 109.971607,20.699163 C110.02814,20.6673496 110.034663,20.4885367 110.014007,20.3865147 C109.875936,19.6591959 109.611754,18.9636906 109.623713,18.1957824 C109.628062,17.8227984 109.416064,17.4311653 109.242117,17.0768305 C109.131226,16.8464581 108.963802,17.2260241 108.801814,17.1119349 C108.78768,17.1031588 108.773547,17.0943827 108.763763,17.0834126 C108.59199,16.84207 108.460443,16.9835845 108.319111,17.125099 C108.258229,17.1843377 108.175604,17.310494 108.089718,17.2106659 C107.900551,16.9923606 107.688553,17.1437482 107.487427,17.1371662 C107.341746,17.1327781 107.197152,17.1382632 107.097133,17.0110098 C106.928622,16.7959955 106.726408,16.7894135 106.624215,17.026368 C106.515498,17.2775837 106.212178,16.936413 106.156732,17.2358972 C106.104548,17.5156352 105.87733,17.8019552 105.858848,18.0114844 C105.775136,19.007571 105.359837,19.9674562 105.515302,20.9898711 C105.532697,21.1138334 105.549005,21.3321387 105.494646,21.35737 C105.074999,21.5647052 105.132619,22.0024128 105.00542,22.3402924 C104.758633,22.9886263 104.442267,23.5952737 103.948692,24.0768618 C103.667115,24.3511148 103.190936,24.1240333 102.866959,24.3829281 C102.837606,24.4059653 102.837606,24.277615 102.810427,24.2304435 C102.676705,23.998974 102.562552,23.7466613 102.385344,23.5524903 C102.262493,23.4197519 101.933081,23.0270217 101.776529,22.8734401 C101.469947,22.5695678 101.734129,22.1022409 101.377538,21.7994657 C100.958978,21.4462279 101.097049,20.8362894 100.897009,20.3645744 C100.795903,20.1276199 100.942671,19.7919343 100.530634,19.7173376 C100.340379,19.6822332 100.407784,19.4836741 100.406696,19.3509357 C100.402348,18.7113779 100.383866,18.0696261 100.414307,17.4311653 C100.42844,17.1415542 100.214267,16.9144728 100.099028,16.8223238 C99.8044049,16.5831753 99.8131022,16.5041904 100.139253,16.3780341 C100.283846,16.3231835 100.528459,16.2343256 100.375168,16.0741619 C100.124032,15.807588 100.306677,15.711051 100.449096,15.5322381 C100.533895,15.428022 100.680663,15.2919926 100.528459,15.0605231 C100.372994,15.3150298 100.135991,15.3018657 99.966393,15.1504781 C99.8261483,15.0243217 99.8370199,14.7336136 99.9479112,14.6206214 C100.26319,14.3024881 100.257754,13.9251161 100.266452,13.5301919 C100.2708,13.3612521 100.039233,13.2778792 100.141427,13.0650589 C100.279498,12.786418 100.438224,12.4847398 100.050105,12.2423002 C99.9544342,12.1830616 100.01749,12.0634873 100.072936,11.9866965 C100.50128,11.3833401 99.953347,10.6461482 100.334943,10.0373068 C100.340379,10.0296277 100.301241,9.98574723 100.275149,9.96929205 C100.006618,9.80693433 100.144689,9.61276326 100.246883,9.43943542 C100.356687,9.25513747 100.419742,9.07193652 100.407784,8.8536312 C100.38604,8.50368449 100.350164,8.1285065 100.537157,7.82792531 C100.850261,7.32549398 100.187088,6.7342047 100.837215,6.18131083 C101.289477,5.79845376 101.33079,4.98995618 101.704776,4.42060713 C102.050496,3.89184752 102.629956,3.61978863 103.090916,4.02568294 C104.133511,4.94717273 104.913011,6.07160966 105.257643,7.43519514 C105.542482,8.56292312 105.742521,9.70491224 106.299151,10.7481703 C106.515498,11.1540646 106.69488,11.4294146 107.17106,11.1277364 C107.635281,10.8326402 108.197348,10.7920508 108.668092,10.4486861 C109.023596,10.1875974 109.376926,9.88482215 109.748738,9.67529293 C109.957474,9.78170306 109.719384,9.86946399 109.765045,9.94406078 C109.943341,10.0910603 110.010745,9.72246443 110.182518,9.88482215 C110.232528,9.93199365 110.16621,10.1305528 110.32385,10.0241426 C110.414085,9.96380699 110.546719,9.85739686 110.460833,9.7103973 C110.38147,9.57546487 110.372772,9.45040554 110.4467,9.26062253 C110.655436,9.60947223 110.831558,9.40542806 110.891352,9.21345102 C110.968541,8.96772042 111.181626,8.60131853 110.657611,8.5420799" id="Fill-46"></path>
                <path d="M70.064137,2.11074818 C69.916137,2.70574818 69.628137,3.26974818 69.708137,3.91374818 C69.731137,4.10274818 69.424137,4.01074818 69.398137,4.25274818 C69.337137,4.80774818 68.942137,5.21174818 68.652137,5.66274818 C68.498137,5.90374818 68.328137,5.96174818 68.043137,5.93774818 C67.365137,5.88174818 66.694137,5.71074818 66.001137,5.83374818 C65.722137,5.88274818 65.663137,6.00374818 65.648137,6.25974818 C65.573137,7.46574818 65.488137,8.68174818 65.514137,9.87874818 C65.543137,11.1607482 65.449137,12.4397482 65.516137,13.7187482 C65.548137,14.3157482 65.376137,14.9087482 65.470137,15.5057482 C65.605137,16.3537482 65.482137,17.1947482 65.459137,18.0407482 C65.445137,18.5467482 65.239137,19.0707482 65.487137,19.6177482 C65.624137,19.9167482 65.347137,20.3177482 65.363137,20.7077482 C65.383137,21.2167482 65.277137,21.7327482 65.230137,22.2457482 C65.220137,22.3447482 65.190137,22.4887482 65.241137,22.5417482 C65.505137,22.8077482 65.355137,23.0657482 65.274137,23.3397482 C65.183137,23.6447482 65.023137,23.9417482 65.273137,24.2747482 C65.366137,24.3977482 65.382137,24.6437482 65.259137,24.8167482 C65.132137,24.9957482 65.149137,25.1287482 65.516137,25.2297482 C65.087137,25.3107482 64.981137,25.4947482 64.891137,25.7467482 C64.543137,26.7267482 63.329137,27.2207482 62.380137,26.7937482 C62.367137,26.7877482 62.354137,26.7717482 62.342137,26.7737482 C61.722137,26.8557482 61.851137,26.3387482 61.754137,26.0227482 C61.358137,24.7267482 61.311137,23.4047482 61.365137,22.0527482 C61.473137,19.2867482 61.553137,16.5157482 61.541137,13.7487482 C61.531137,11.8257482 61.652137,9.90374818 61.528137,7.98074818 C61.490137,7.37874818 61.636137,6.76574818 61.699137,6.15774818 C61.708137,6.07074818 61.724137,5.98474818 61.731137,5.89774818 C61.757137,5.54774818 61.692137,5.30674818 61.241137,5.37874818 C60.348137,5.51874818 59.453137,5.54174818 58.560137,5.34874818 C58.206137,5.27274818 57.841137,5.22874818 57.498137,5.12074818 C57.239137,5.03874818 57.208137,4.73974818 57.118137,4.52274818 C57.039137,4.33574818 56.863137,4.20774818 57.042137,3.88374818 C57.290137,3.43574818 57.585137,2.91274818 57.392137,2.32774818 C57.363137,2.23774818 57.357137,2.16774818 57.450137,2.10274818 C57.518137,2.05374818 57.608137,1.98174818 57.614137,1.91174818 C57.696137,1.08674818 58.206137,1.18274818 58.839137,1.21174818 C60.057137,1.26574818 61.286137,1.33674818 62.504137,1.15274818 C62.589137,1.13974818 62.710137,1.10874818 62.759137,1.15074818 C63.206137,1.53274818 63.736137,1.36274818 64.228137,1.36574818 C65.684137,1.37374818 67.141137,1.35574818 68.591137,1.50574818 C68.895137,1.53674818 69.198137,1.64174818 69.481137,1.76274818 C69.677137,1.84674818 69.856137,1.90674818 70.064137,1.84774818 L70.064137,2.11074818 Z" id="Fill-50"></path>
                <path d="M83.1250825,8.5904668 C83.144713,9.36793301 83.2635291,10.1618535 83.1467794,10.9187519 C83.0610251,11.4740849 83.25733,12.0952351 82.7593356,12.6176595 C82.4049538,12.9899383 81.9916805,12.9477741 81.6197345,12.9775976 C81.3438745,12.9981654 81.1496361,12.6125175 81.070081,12.3091412 C81.0132559,12.0942067 80.9956918,11.8638464 81.0008577,11.6406848 C81.0618155,8.80951482 81.126906,5.97731649 81.1971625,3.14511816 C81.2126603,2.45403708 81.3624718,2.31109025 82.0392069,2.27098287 C82.1104965,2.26686929 82.1859189,2.23498906 82.2468767,2.19796686 C82.5940263,1.98817439 82.7923975,2.16402984 82.9825032,2.44375314 C83.3699469,3.01759724 83.8245476,3.54824878 84.0105206,4.23932986 C84.0260183,4.29794834 84.2295554,4.3431977 84.306011,4.4542643 C84.3514711,4.54064943 84.2801814,4.66097158 84.3855661,4.72987401 C84.2977455,5.0671874 84.4093293,5.52070935 84.5446763,5.6595426 C84.9052573,6.03593497 84.7420143,6.65400004 85.2255441,6.91932581 C85.3691566,6.99748379 85.2968338,7.11986273 85.2989001,7.22270218 C85.304066,7.40575639 85.3081988,7.58264024 85.5654614,7.68445129 C85.6191869,6.89978632 85.6522488,6.13260405 85.7287044,5.37056376 C85.8144586,4.49231489 85.935341,3.61715121 86.0489912,2.74198753 C86.0675885,2.59492712 86.1357786,2.45506548 86.1667741,2.31109025 C86.2432296,1.95423737 86.4746627,1.95423737 86.7401908,2.06530398 C86.9767898,2.16402984 87.186526,2.35222603 87.4727177,2.23498906 C87.603932,2.18151255 87.5966997,2.30800507 87.6483589,2.37176552 C87.9045884,2.69468138 87.8529292,3.07004536 87.8467301,3.43512539 C87.840531,3.72616102 87.7599427,4.01205468 87.9428161,4.29280637 C88.0626654,4.47688898 87.7961041,4.65068764 87.8301992,4.82757149 C87.9841435,5.63280435 87.7826727,6.44112239 87.7485777,7.23195773 C87.7175822,7.9055561 87.975878,8.61206309 87.7341131,9.23115655 C87.4396559,9.98805487 87.7413454,10.7243853 87.6111643,11.4586589 C87.5987661,11.5296182 87.5615715,11.6190885 87.6690226,11.6375996 C87.8725597,11.6715366 88.0698977,11.8535624 87.975878,11.9666858 C87.8384646,12.1332857 87.7454781,12.4191794 87.4706514,12.4325485 C87.1958246,12.4479744 87.0036525,12.5837225 86.8042482,12.7482656 C86.3558466,13.1154024 86.1636745,13.0711815 85.7566003,12.6793632 C84.7048197,11.667423 84.3328738,10.2708633 83.6447737,9.0542727 C83.5125262,8.82082716 83.4050752,8.5729841 83.2862591,8.3313114 C83.0620583,8.31177191 83.2531972,8.55035942 83.1250825,8.5904668" id="Fill-52"></path>
                <path d="M78.9550693,6.19269414 C79.0081138,7.29856777 78.8414025,8.32747584 78.8994989,9.3563839 C78.9525434,10.3012375 78.9264421,11.2420402 78.9365458,12.1858811 C78.9407557,12.7975548 78.8658198,12.8724949 78.358108,12.9079396 C78.2124461,12.9180666 78.0667842,12.9535113 77.9211222,12.9808543 C77.3822573,13.0851629 77.0496766,12.759072 77.0328371,12.1048647 C77.0261013,11.8385233 77.036205,11.572182 77.0311531,11.307866 C77.000842,9.62981419 76.9671629,7.94872424 77.0648322,6.27371053 C77.1296644,5.1678369 77.1448199,4.06398868 77.1549237,2.95912775 C77.1608175,2.30593317 77.3014276,2.15605286 77.8419764,2.09326516 C78.0112137,2.07503647 78.1905547,2.09326516 78.3496882,2.03554099 C78.6999504,1.90895289 78.7723604,2.13579876 78.8043555,2.47404216 C78.9222322,3.73384692 79.0779979,4.99061356 78.9550693,6.19269414" id="Fill-54"></path>
                <path d="M38.967437,18.3451482 C38.843437,18.5961482 38.701437,18.8281482 38.751437,19.1191482 C38.786437,19.3291482 38.580437,19.4021482 38.523437,19.5331482 C38.213437,20.2251482 37.412437,20.2121482 36.943437,20.6741482 C36.834437,20.7821482 36.501437,20.8041482 36.279437,20.8071482 C35.980437,20.8111482 35.882437,20.9611482 35.812437,21.3261482 C35.723437,20.9551482 35.606437,20.9291482 35.377437,21.0801482 C34.859437,21.4251482 34.289437,21.2431482 33.737437,21.1741482 C33.579437,21.1551482 33.493437,21.0771482 33.620437,20.9091482 C33.659437,20.8581482 33.688437,20.7741482 33.678437,20.7121482 C33.585437,20.1641482 33.684437,19.6351482 33.739437,19.0891482 C33.840437,18.1281482 33.953437,17.1561482 33.876437,16.1811482 C33.850437,15.8461482 34.005437,15.5221482 33.918437,15.1841482 C33.872437,15.0031482 34.035437,15.0591482 34.113437,15.0451482 C35.365437,14.8311482 36.622437,14.6931482 37.888437,14.9321482 C38.370437,15.0231482 38.710437,15.3271482 38.953437,15.7421482 C39.026437,15.8661482 39.040437,16.0281482 39.123437,16.1411482 C39.695437,16.9231482 39.315437,17.6381482 38.967437,18.3451482 M34.330437,4.19014818 C34.918437,4.13214818 35.473437,4.38514818 36.033437,4.57114818 C36.371437,4.68314818 36.522437,5.05614818 36.728437,5.33014818 C37.007437,5.70114818 37.231437,6.11414818 37.503437,6.49014818 C37.655437,6.69914818 37.615437,6.91014818 37.485437,7.04614818 C37.129437,7.41614818 37.100437,7.89214818 36.997437,8.34414818 C36.971437,8.45614818 36.981437,8.57214818 36.894437,8.66414818 C36.114437,9.48814818 35.273437,10.2091482 34.125437,10.4721482 C33.943437,10.5141482 33.866437,10.5121482 33.858437,10.2941482 C33.774437,8.49114818 33.670437,6.68914818 33.593437,4.88514818 C33.565437,4.19114818 33.589437,4.19014818 34.330437,4.19014818 M42.022437,14.7281482 C41.922437,14.6491482 41.792437,14.8051482 41.690437,14.6711482 C41.714437,14.5231482 42.001437,14.3661482 41.824437,14.2381482 C41.511437,14.0111482 41.714437,13.8631482 41.828437,13.6801482 C41.878437,13.6011482 42.002437,13.4421482 41.935437,13.4431482 C41.417437,13.4521482 41.533437,12.9541482 41.334437,12.7321482 C41.186437,12.7181482 41.250437,13.0201482 41.042437,12.9071482 C40.900437,12.8291482 40.886437,12.6991482 40.909437,12.5691482 C40.981437,12.1741482 40.767437,11.9331482 40.521437,11.6601482 C40.212437,11.3201482 39.756437,11.3081482 39.415437,11.0611482 C39.315437,10.9891482 39.238437,10.9611482 39.211437,10.7881482 C39.139437,10.3331482 39.721437,9.97914818 39.381437,9.50014818 C39.368437,9.48314818 39.464437,9.39114818 39.503437,9.33114818 C40.040437,8.53014818 40.501437,7.71514818 40.394437,6.68114818 C40.368437,6.43114818 40.323437,6.17214818 40.327437,5.91014818 C40.340437,5.04214818 40.307437,4.17614818 39.983437,3.30614818 C39.860437,3.43714818 39.764437,3.53914818 39.638437,3.67314818 C39.526437,3.42214818 39.512437,3.24814818 39.710437,3.08614818 C39.883437,2.94614818 39.917437,2.75614818 39.712437,2.62014818 C39.560437,2.52014818 39.578437,2.39114818 39.551437,2.24914818 C39.509437,2.02014818 39.371437,1.73114818 39.137437,1.79914818 C38.751437,1.91314818 38.621437,1.56714818 38.621437,1.44814818 C38.624437,1.00114818 38.301437,1.01214818 38.036437,0.931148184 C37.955437,0.907148184 37.850437,0.920148184 37.801437,0.844148184 C37.565437,0.484148184 37.242437,0.400148184 36.814437,0.360148184 C35.712437,0.257148184 34.628437,-0.0128518161 33.511437,0.00614818391 C32.825437,0.0171481839 32.140437,0.0191481839 31.455437,0.00314818391 C31.108437,-0.00485181609 30.780437,-0.0298518161 30.688437,0.418148184 C30.668437,0.515148184 30.570437,0.547148184 30.488437,0.567148184 C30.190437,0.641148184 30.057437,0.866148184 29.909437,1.11114818 C29.573437,1.66714818 29.479437,2.26714818 29.486437,2.90214818 C29.518437,6.29714818 29.544437,9.69414818 29.572437,13.0901482 C29.605437,16.8801482 29.634437,20.6701482 29.671437,24.4601482 C29.672437,24.5921482 29.583437,24.7761482 29.752437,24.8531482 C30.119437,25.0201482 30.498437,25.1621482 30.875437,25.3081482 C30.925437,25.3271482 30.992437,25.3191482 31.048437,25.3081482 C31.715437,25.1841482 32.381437,25.2071482 33.054437,25.2711482 C33.587437,25.3211482 34.123437,25.5171482 34.653437,25.3851482 C35.184437,25.2511482 35.703437,25.1311482 36.259437,25.1081482 C36.611437,25.0931482 37.012437,24.9541482 37.282437,24.7371482 C37.499437,24.5631482 37.737437,24.5831482 37.931437,24.4631482 C38.080437,24.3711482 38.084437,24.7211482 38.154437,24.5321482 C38.269437,24.2131482 38.621437,24.2691482 38.812437,24.0491482 C38.917437,23.9271482 39.075437,23.7501482 39.312437,23.7091482 C39.645437,23.6521482 39.941437,23.4891482 39.833437,23.0541482 C40.042437,23.0421482 40.172437,23.3111482 40.371437,23.0681482 C40.701437,22.6621482 40.972437,22.2231482 41.113437,21.7271482 C41.319437,21.0051482 41.385437,20.2551482 41.499437,19.5151482 C41.567437,19.0891482 41.576437,18.6571482 41.673437,18.2301482 C41.789437,17.7101482 41.877437,17.1361482 41.775437,16.6271482 C41.638437,15.9521482 41.848437,15.3881482 42.037437,14.7931482 C42.050437,14.7561482 42.061437,14.7401482 42.022437,14.7281482" id="Fill-56"></path>
                <path d="M10.535837,22.5892482 C10.483837,22.5822482 10.406837,22.5682482 10.392837,22.5342482 C10.371837,22.4822482 10.412837,22.4182482 10.485837,22.4392482 C10.537837,22.4532482 10.581837,22.4952482 10.653837,22.5412482 C10.597837,22.5662482 10.564837,22.5932482 10.535837,22.5892482 L10.535837,22.5892482 Z M9.15083698,22.3632482 C9.44383698,22.2372482 9.46983698,22.4522482 9.57383698,22.5442482 C9.39283698,22.5732482 9.31183698,22.4482482 9.15083698,22.3632482 L9.15083698,22.3632482 Z M3.68183698,12.3792482 C3.98483698,12.1692482 3.83283698,11.9342482 3.80883698,11.6852482 C3.67883698,10.3602482 3.34883698,9.04724818 3.53783698,7.69624818 C3.65883698,6.83424818 3.43483698,5.98624818 3.36783698,5.13124818 C3.35783698,5.01524818 3.32883698,4.89824818 3.33683698,4.78424818 C3.35983698,4.47324818 3.43183698,4.26124818 3.85183698,4.29424818 C4.59183698,4.35424818 5.33583698,4.31124818 6.07883698,4.36324818 C6.95483698,4.42524818 7.62283698,4.83324818 8.18683698,5.44524818 C8.63383698,5.93024818 8.65983698,6.59624818 8.79883698,7.19224818 C9.02583698,8.16524818 9.17983698,9.15824818 9.19583698,10.1662482 C9.19883698,10.3812482 9.14083698,10.5142482 8.97583698,10.6732482 C8.18083698,11.4432482 7.17983698,11.7202482 6.14083698,11.9232482 C5.33383698,12.0812482 4.51183698,12.1552482 3.68183698,12.3792482 L3.68183698,12.3792482 Z M3.30383698,22.4132482 C3.28483698,22.4162482 3.26483698,22.4192482 3.24683698,22.4222482 C3.23383698,22.3122482 3.22183698,22.2002482 3.20983698,22.0902482 C3.24083698,22.0942482 3.27183698,22.0972482 3.30383698,22.1002482 L3.30383698,22.4132482 Z M11.115837,11.1852482 C11.212837,11.1942482 11.202837,11.2612482 11.200837,11.3112482 C11.199837,11.3442482 11.170837,11.3772482 11.153837,11.4092482 C11.125837,11.3662482 11.086837,11.3252482 11.072837,11.2772482 C11.064837,11.2512482 11.100837,11.2132482 11.115837,11.1852482 L11.115837,11.1852482 Z M12.756837,22.5242482 C12.679837,22.5592482 12.629837,22.6742482 12.513837,22.5932482 C12.132837,22.3292482 11.945837,22.3462482 11.653837,22.6922482 C11.508837,22.8652482 11.366837,22.8602482 11.183837,22.7272482 C11.265837,22.6642482 11.344837,22.6052482 11.474837,22.5062482 C10.547837,22.2342482 9.84883698,21.7202482 9.22183698,21.0852482 C8.86383698,20.7222482 8.71183698,19.8332482 8.99883698,19.5222482 C8.96983698,19.2922482 8.79383698,19.4192482 8.68383698,19.4002482 C8.50883698,19.3672482 8.47983698,19.5862482 8.35583698,19.6562482 C8.26183698,19.4552482 8.53483698,19.4222482 8.48383698,19.2622482 C8.33683698,19.2222482 8.32883698,18.9372482 8.11683698,19.0282482 C7.68083698,19.2182482 7.89183698,18.8462482 7.90283698,18.7492482 C7.91583698,18.6362482 8.05683698,18.5422482 8.11283698,18.4262482 C8.19183698,18.2642482 8.36383698,18.0182482 8.25183698,17.9242482 C8.01783698,17.7292482 8.04183698,18.1512482 7.86283698,18.1712482 C7.83783698,18.1742482 7.81183698,18.1792482 7.78483698,18.1842482 C7.52083698,17.7162482 7.93283698,17.1592482 7.58683698,16.6962482 C7.48083698,16.8432482 7.29883698,16.9022482 7.24783698,17.1052482 C7.21783698,17.2242482 7.02783698,17.2072482 7.02783698,17.1062482 C7.02583698,16.8492482 6.80583698,16.6912482 6.77783698,16.4792482 C6.74183698,16.2002482 6.58683698,15.8802482 7.01483698,15.6702482 C7.32383698,15.5202482 7.64683698,15.5392482 7.94083698,15.5092482 C8.35583698,15.4662482 8.62483698,14.9022482 9.12583698,15.2182482 C9.23583698,15.2862482 9.26483698,15.0602482 9.26583698,14.9592482 C9.27083698,14.7002482 9.42783698,14.5182482 9.63183698,14.4702482 C9.89983698,14.4072482 10.047837,14.2162482 10.217837,14.0592482 C11.075837,13.2682482 11.459837,12.2932482 11.368837,11.1122482 C11.335837,10.6852482 11.456837,10.2592482 11.885837,9.98624818 C12.042837,9.88724818 12.036837,9.48724818 11.994837,9.48324818 C11.657837,9.43924818 11.818837,9.22724818 11.849837,9.09524818 C11.907837,8.85524818 12.045837,8.63024818 12.072837,8.39124818 C12.109837,8.07224818 12.361837,7.74424818 12.112837,7.42724818 C11.940837,7.20824818 11.829837,7.01524818 12.003837,6.74124818 C12.056837,6.65824818 12.124837,6.45524818 12.032837,6.42624818 C11.723837,6.32524818 11.879837,6.07224818 11.811837,5.89824818 C11.715837,5.64624818 11.925837,5.25324818 11.472837,5.16124818 C11.457837,5.15924818 11.465837,5.05424818 11.461837,4.99724818 C11.538837,4.88724818 11.734837,4.79724818 11.548837,4.63324818 C11.422837,4.52424818 11.320837,4.55524818 11.281837,4.72724818 C11.106837,4.48224818 11.124837,4.30824818 11.358837,4.21324818 C11.509837,4.15224818 11.459837,4.00024818 11.419837,3.99024818 C11.009837,3.89124818 11.153837,3.54324818 11.148837,3.31724818 C11.140837,2.98224818 10.998837,2.73624818 10.751837,2.58824818 C10.258837,2.29224818 9.94483698,1.78624818 9.33083698,1.59024818 C9.02683698,1.49324818 8.65683698,1.27724818 8.32583698,1.10524818 C7.95783698,0.913248184 7.54783698,0.745248184 7.13983698,0.694248184 C5.26683698,0.461248184 3.38883698,0.641248184 1.51283698,0.679248184 C1.35783698,0.682248184 1.15183698,0.710248184 1.13683698,0.839248184 C1.08783698,1.26424818 0.786836984,1.35124818 0.462836984,1.41124818 C0.191836984,1.46124818 0.103836984,1.59624818 0.0668369841,1.87424818 C-0.0371630159,2.63324818 -0.00716301588,3.38624818 0.0708369841,4.14124818 C0.180836984,5.20324818 -0.0531630159,6.25624818 0.0258369841,7.32624818 C0.168836984,9.25724818 0.353836984,11.1912482 0.256836984,13.1342482 C0.212836984,14.0222482 0.206836984,14.9112482 0.171836984,15.8002482 C0.135836984,16.6782482 0.171836984,17.5572482 0.153836984,18.4362482 C0.112836984,20.4542482 0.174836984,22.4792482 0.385836984,24.4962482 C0.447836984,25.0972482 0.644836984,25.6152482 0.874836984,26.1472482 C0.950836984,26.3222482 1.04583698,26.2892482 1.20583698,26.2862482 C1.46783698,26.2812482 1.58783698,26.0402482 1.81483698,26.0102482 C2.48783698,25.9212482 3.06583698,25.6082482 3.61583698,25.2362482 C3.71283698,25.1712482 3.78583698,25.0942482 3.91683698,25.0992482 C4.31783698,25.1132482 4.21283698,24.6832482 4.16583698,24.6302482 C3.92583698,24.3542482 4.03783698,24.1252482 4.19383698,23.8982482 C4.09283698,23.7642482 3.91983698,23.9102482 3.80883698,23.7112482 C4.23883698,23.5742482 4.22183698,23.2022482 4.10083698,22.9052482 C3.97183698,22.5852482 3.95183698,22.2802482 3.95483698,21.9532482 C3.95983698,21.5172482 4.00883698,21.0682482 3.92483698,20.6472482 C3.84983698,20.2742482 4.33283698,19.8672482 3.84583698,19.5362482 C3.83183698,19.5262482 3.88083698,19.4332482 3.89083698,19.3762482 C3.90383698,19.3072482 3.93683698,19.1932482 3.90883698,19.1742482 C3.48783698,18.8812482 3.87683698,18.6562482 3.94883698,18.3812482 C4.80483698,19.2552482 5.48183698,20.1992482 5.85383698,21.3522482 C6.10683698,22.1382482 6.34983698,22.9302482 6.81783698,23.6322482 C7.05683698,23.9912482 7.34883698,24.2912482 7.63783698,24.6052482 C7.99183698,24.9872482 8.38783698,25.3052482 8.82383698,25.5912482 C9.39583698,25.9652482 10.013837,25.8752482 10.627837,25.8982482 C10.999837,25.9122482 11.256837,25.7482482 11.493837,25.4852482 C11.803837,25.1422482 11.956837,24.7212482 12.139837,24.3102482 C12.420837,23.6832482 12.729837,23.0682482 13.067837,22.3652482 C12.905837,22.4482482 12.832837,22.4882482 12.756837,22.5242482 L12.756837,22.5242482 Z" id="Fill-58"></path>
                <path d="M53.360037,17.5219482 C53.296037,18.4209482 53.135037,19.3149482 53.171037,20.2219482 C53.178037,20.4269482 53.112037,20.5819482 52.978037,20.7309482 C52.754037,20.9789482 52.530037,21.2309482 52.331037,21.4999482 C51.862037,22.1309482 51.155037,22.3029482 50.458037,22.3699482 C49.472037,22.4619482 49.480037,22.4059482 49.114037,21.4999482 C48.894037,20.9559482 48.727037,20.4119482 48.733037,19.8149482 C48.741037,18.9989482 48.598037,18.1819482 48.457037,17.3929482 C48.302037,16.5289482 48.327037,15.6519482 48.136037,14.7989482 C48.026037,14.3079482 48.162037,13.8129482 48.162037,13.3199482 C48.162037,11.3119482 48.539037,9.35294818 48.956037,7.40294818 C49.077037,6.83994818 49.270037,6.29794818 49.615037,5.80694818 C49.904037,5.39494818 50.091037,4.91194818 50.326037,4.45994818 C50.484037,4.15494818 50.811037,4.10094818 51.058037,4.34894818 C51.735037,5.02894818 52.228037,5.81394818 52.536037,6.73294818 C53.253037,8.86594818 53.428037,11.0839482 53.643037,13.2969482 C53.754037,14.7199482 53.462037,16.1159482 53.360037,17.5219482 M56.717037,15.1149482 C56.869037,14.7859482 56.908037,14.4569482 56.928037,14.1039482 C56.944037,13.8179482 56.754037,13.5599482 56.806037,13.3069482 C57.006037,12.3549482 56.761037,11.4089482 56.822037,10.4609482 C56.854037,9.93994818 56.683037,9.44494818 56.660037,8.93094818 C56.639037,8.45394818 56.303037,8.04294818 56.354037,7.53794818 C56.368037,7.41194818 56.455037,7.30594818 56.391037,7.13694818 C56.124037,6.43094818 55.952037,5.68694818 55.654037,4.99594818 C55.098037,3.70894818 54.421037,2.49494818 53.185037,1.70694818 C52.750037,1.42794818 52.293037,1.30294818 51.780037,1.38894818 C51.225037,1.48294818 50.663037,1.56594818 50.111037,1.64294818 C49.193037,1.77294818 48.492037,2.13194818 47.863037,2.80394818 C46.527037,4.23494818 45.473037,5.79394818 44.878037,7.69494818 C44.333037,9.42694818 44.150037,11.1749482 44.098037,12.9709482 C44.032037,15.2979482 44.267037,17.6009482 44.588037,19.8929482 C44.779037,21.2689482 45.035037,22.6579482 45.741037,23.8949482 C46.029037,24.3989482 46.369037,24.8839482 46.899037,25.1679482 C47.619037,25.5529482 48.432037,25.6599482 49.206037,25.8789482 C49.655037,26.0069482 50.115037,26.1869482 50.623037,26.0869482 C51.146037,26.1739482 51.661037,26.0249482 52.155037,25.8619482 C52.673037,25.6909482 53.234037,25.5379482 53.503037,24.9669482 C53.526037,24.9169482 53.568037,24.8649482 53.616037,24.8359482 C54.260037,24.4519482 54.392037,23.7149482 54.751037,23.1409482 C55.042037,22.6729482 55.213037,22.1189482 55.365037,21.5829482 C55.425037,21.3679482 55.709037,21.4499482 55.696037,21.1949482 C55.661037,20.5249482 55.983037,19.9279482 56.118037,19.2929482 C56.202037,18.8999482 56.399037,18.5479482 56.404037,18.1099482 C56.409037,17.6259482 56.273037,17.0649482 56.703037,16.6419482 C56.780037,16.5649482 56.707037,16.4179482 56.713037,16.3069482 C56.735037,15.9079482 56.542037,15.4969482 56.717037,15.1149482" id="Fill-60"></path>
                <path d="M23.447937,17.5443482 C23.363937,18.4283482 23.223937,19.3093482 23.260937,20.1993482 C23.269937,20.4223482 23.198937,20.5903482 23.050937,20.7473482 C22.900937,20.9063482 22.752937,21.0693482 22.628937,21.2483482 C21.914937,22.2683482 20.863937,22.4183482 19.736937,22.3913482 C19.542937,22.3863482 19.509937,22.2663482 19.447937,22.1293482 C19.034937,21.2203482 18.767937,20.2813482 18.767937,19.2723482 C18.768937,18.6323482 18.684937,17.9763482 18.551937,17.3703482 C18.064937,15.1693482 18.194937,12.9653482 18.423937,10.7703482 C18.569937,9.35934818 18.817937,7.93734818 19.288937,6.59534818 C19.566937,5.79934818 20.111937,5.09934818 20.493937,4.33134818 C20.614937,4.08834818 20.937937,4.14734818 21.127937,4.33434818 C21.796937,4.99934818 22.284937,5.77234818 22.608937,6.66834818 C23.099937,8.02334818 23.247937,9.44034818 23.484937,10.8443482 C23.658937,11.8823482 23.680937,12.9313482 23.768937,14.1693482 C23.674937,15.1673482 23.560937,16.3563482 23.447937,17.5443482 M26.791937,15.1333482 C26.965937,14.7943482 26.991937,14.4483482 27.015937,14.0813482 C27.035937,13.7933482 26.832937,13.5493482 26.889937,13.2833482 C27.108937,12.2613482 26.885937,11.2403482 26.885937,10.2213482 C26.885937,9.55734818 26.822937,8.87234818 26.553937,8.24034818 C26.478937,8.06234818 26.418937,7.88134818 26.458937,7.69334818 C26.539937,7.31334818 26.400937,6.97634818 26.286937,6.62834818 C25.908937,5.46834818 25.583937,4.29134818 24.834937,3.28634818 C24.687937,3.08934818 24.468937,2.97234818 24.355937,2.74734818 C23.907937,1.85334818 22.807937,1.27334818 21.801937,1.39934818 C21.258937,1.46834818 20.714937,1.57034818 20.176937,1.64834818 C19.293937,1.77634818 18.608937,2.10734818 17.995937,2.75734818 C16.621937,4.21434818 15.471937,5.78634818 14.965937,7.76334818 C14.795937,8.42434818 14.461937,9.06134818 14.400937,9.72834818 C14.279937,11.0433482 14.065937,12.3603482 14.207937,13.5333482 C14.110937,15.9163482 14.422937,18.1113482 14.749937,20.2993482 C14.930937,21.5173482 15.176937,22.7383482 15.796937,23.8363482 C16.097937,24.3713482 16.477937,24.8343482 16.996937,25.1903482 C17.473937,25.5213482 18.046937,25.4823482 18.560937,25.6703482 C19.737937,26.1013482 20.950937,26.3153482 22.178937,25.8833482 C22.677937,25.7073482 23.245937,25.6103482 23.517937,25.0523482 C23.554937,24.9763482 23.616937,24.8983482 23.686937,24.8533482 C24.333937,24.4333482 24.509937,23.6933482 24.861937,23.0823482 C25.131937,22.6143482 25.306937,22.0843482 25.460937,21.5633482 C25.521937,21.3573482 25.803937,21.4433482 25.786937,21.1733482 C25.744937,20.5203482 26.066937,19.9353482 26.197937,19.3143482 C26.283937,18.9053482 26.489937,18.5423482 26.491937,18.0883482 C26.493937,17.6053482 26.366937,17.0453482 26.795937,16.6213482 C26.866937,16.5523482 26.773937,16.3873482 26.790937,16.2913482 C26.859937,15.8993482 26.601937,15.5043482 26.791937,15.1333482" id="Fill-62"></path>
                <path d="M82.444329,22.11877 C82.0707245,22.2585038 81.9598748,22.1324282 82.0204315,21.7195303 C82.0809883,21.3024299 82.2626587,20.9157979 82.3386112,20.4734824 C82.5110441,20.9315573 82.7204268,21.3822779 82.845646,21.854011 C82.9339152,22.1849597 82.5941814,22.0620359 82.444329,22.11877 M85.9381472,24.5058028 C85.4619041,23.8123866 85.4444555,22.9802871 85.1775951,22.2311874 C85.0185053,21.78572 84.8830223,21.2719617 84.7567768,20.8012791 C84.6058981,20.241293 84.5627899,19.549978 84.039333,19.1087131 C83.9664596,19.0477765 83.9017972,18.7746126 84.0383066,18.6023091 C84.0968106,18.5266637 84.1224702,18.4342082 84.0721773,18.3480565 C83.5589843,17.4581724 83.4542929,16.4064911 82.9677859,15.4966449 C82.7450601,15.0805952 82.5202816,14.9534689 82.0994633,15.0144055 C81.4477081,15.1079116 81.2732225,15.2571011 81.0802619,15.9935932 C80.5927285,17.8511082 80.1246964,19.7159776 79.6197145,21.5692901 C79.2584266,22.8972873 78.9115081,24.2231832 79.020305,25.6226232 C79.0500702,26.0092553 79.1732365,26.3727735 79.4452289,26.630178 C79.570448,26.7499499 79.7829099,26.7814688 79.8568097,27 C79.9101818,26.9390634 79.9419997,26.8844306 79.9881871,26.8539623 C80.7312906,26.3612166 81.2701433,25.7360913 81.3399376,24.7779162 C81.3553334,24.5625369 81.4826052,24.3429551 81.6540117,24.2420945 C81.9095818,24.0918543 82.2380254,24.10131 82.5182288,24.0666392 C82.7491657,24.0372215 83.0488704,24.0424747 83.1915381,23.9290066 C83.5579579,23.6327287 83.5312719,24.0067533 83.5579579,24.1338796 C83.7057575,24.820992 83.9572221,25.4671299 84.2651379,26.0891032 C84.4324388,26.4274063 84.8809696,26.4515708 85.0626399,26.1174702 C85.2094131,25.8474582 85.4239278,25.6478383 85.6004662,25.4145983 C85.791374,25.1603457 86.142398,24.8020807 85.9381472,24.5058028" id="Fill-64"></path>
            </g>
        </g>
    </g>
</svg>