<?xml version="1.0" encoding="UTF-8"?>
<svg width="12px" height="12px" viewBox="0 0 12 12" version="1.1" xmlns="http://www.w3.org/2000/svg" xmlns:xlink="http://www.w3.org/1999/xlink">
    <!-- Generator: Sketch 56.3 (81716) - https://sketch.com -->
    <title>Group 4</title>
    <desc>Created with Sketch.</desc>
    <g id="Page-1" stroke="none" stroke-width="1" fill="none" fill-rule="evenodd">
        <g id="Connected" transform="translate(-1335.000000, -20.000000)" fill="#FFFFFF">
            <g id="Group-7" transform="translate(1335.000000, 14.000000)">
                <g id="Group-4" transform="translate(0.000000, 6.000000)">
                    <path d="M11.5536798,0.583467877 C11.456115,0.494510637 11.3404627,0.449884247 11.2068308,0.449884247 C11.0732529,0.449884247 10.9577625,0.494510637 10.8600087,0.583467877 L9.85809337,1.49064947 C9.3083128,1.01714674 8.67878503,0.650259691 7.96975302,0.39016074 C7.260775,0.130037161 6.53092881,0 5.78070038,0 C4.36760369,0 3.13446464,0.390185369 2.08106726,1.1707285 C1.02764287,1.95117313 0.333998782,2.96945276 0,4.22581369 L0,4.27499631 C0,4.3359266 0.0243776996,4.38870494 0.0732140879,4.43318356 C0.122050476,4.47773606 0.179822655,4.5 0.246611613,4.5 L1.78038196,4.5 C1.89346965,4.5 1.97049023,4.4460395 2.01163266,4.33829091 C2.22741444,3.86956605 2.36353001,3.59535511 2.42011435,3.51563347 C2.77975966,2.98124969 3.25762197,2.56168282 3.85370127,2.25698211 C4.44983456,1.95230603 5.09210461,1.79990641 5.7805924,1.79990641 C6.81349956,1.79990641 7.71010217,2.12103417 8.47064321,2.76324042 L7.40682523,3.7335196 C7.30944941,3.82259998 7.26047804,3.92813203 7.26047804,4.05001724 C7.26047804,4.17187782 7.30942242,4.27736062 7.40682523,4.36641637 C7.504579,4.45549675 7.62023134,4.5 7.75383625,4.5 L11.2068308,4.5 C11.3404357,4.5 11.456088,4.45549675 11.5536798,4.36641637 C11.6512176,4.27736062 11.7,4.17190245 11.7,4.05001724 L11.7,0.899891636 C11.7,0.778006425 11.6515146,0.672572886 11.5536798,0.583467877 Z" id="Path"></path>
                    <path d="M11.4519507,7.20029553 L9.96528249,7.20029553 C9.85169947,7.20029553 9.77426883,7.25415545 9.73307194,7.36199842 C9.51637463,7.83075458 9.3794675,8.10483188 9.32275735,8.18455047 C8.96134205,8.71879064 8.48124497,9.1384892 7.8825746,9.44315361 C7.28366014,9.74791653 6.6384229,9.90013791 5.94672728,9.90013791 C5.44604531,9.90013791 4.96334461,9.81583864 4.49881502,9.64714159 C4.03423119,9.47824752 3.618628,9.239141 3.25216818,8.92974814 L4.31300861,7.96652492 C4.41105125,7.87754646 4.46011326,7.77194457 4.46011326,7.65013791 C4.46011326,7.528282 4.41105125,7.42268011 4.31300861,7.3337509 C4.21491172,7.24460005 4.09880644,7.2 3.96458429,7.2 L0.495610328,7.2 C0.361306818,7.2 0.2451473,7.24460005 0.147077531,7.3337509 C0.0490077631,7.42270474 0,7.52830663 0,7.65016254 L0,10.8001675 C0,10.9219495 0.0490077631,11.0275268 0.147104653,11.1165545 C0.245255784,11.2054591 0.361415302,11.2502315 0.495637449,11.2502315 C0.629832475,11.2502315 0.745937751,11.2054837 0.844061762,11.1165545 L1.84290344,10.2094569 C2.39527815,10.6874729 3.02380882,11.055528 3.72844119,11.3133267 C4.43307356,11.5712238 5.16222337,11.7 5.91583638,11.7 C7.33033549,11.7 8.56401846,11.3097803 9.61707514,10.5293656 C10.6701318,9.7489755 11.3618546,8.73053786 11.692379,7.4743482 C11.6975591,7.46498982 11.7,7.44856341 11.7,7.42521672 C11.7,7.36419025 11.6754012,7.31163558 11.6263663,7.26693702 C11.5772772,7.22263249 11.5191567,7.20029553 11.4519507,7.20029553 Z" id="Path"></path>
                </g>
            </g>
        </g>
    </g>
</svg>